<svg width="221" height="70" viewBox="0 0 221 70" fill="none" xmlns="http://www.w3.org/2000/svg">
<g id="Group 5321">
<path id="Vector" d="M56.5676 0.00952148H0V25.5873C0 39.2085 8.54271 55.674 28.2775 70C48.0091 55.6772 56.5518 39.2148 56.555 25.5936L56.5676 0.00952148Z" fill="#005FBE"/>
<path id="Vector_2" d="M49.5129 46.9046C41.7851 59.7013 29.7498 68.2755 28.2773 69.3264C26.8204 68.3195 15.7448 60.4093 8.03906 48.4967L20.5747 25.3511L23.2523 11.645L31.0462 9.05859L34.2839 22.1732L36.8829 20.1374L49.5129 46.9046Z" fill="white"/>
<path id="Vector_3" d="M103.02 0.00952148L96.5039 19.6562H100.519L101.567 16.2517H108.911L109.955 19.6562H113.973L107.457 0.00952148H103.02ZM102.539 13.0895L105.239 4.30762L107.935 13.0895H102.539Z" fill="white"/>
<path id="Vector_4" d="M102.663 27.8969C96.9053 27.8969 93.9004 31.6884 93.9004 36.6881V39.5514C93.9004 44.5512 96.9053 48.3427 102.663 48.3427C108.421 48.3427 111.423 44.5669 111.423 39.5514V36.6881C111.423 31.6884 108.447 27.8969 102.663 27.8969ZM107.481 39.7497C107.481 42.8678 105.936 45.0987 102.651 45.0987C99.3658 45.0987 97.8178 42.8962 97.8178 39.7497V36.4899C97.8178 33.3749 99.3627 31.1566 102.651 31.1566C105.939 31.1566 107.481 33.3749 107.481 36.4899V39.7497Z" fill="white"/>
<path id="Vector_5" d="M177.717 41.0524C177.717 43.6074 176.087 45.0957 173.56 45.0957C171.034 45.0957 169.376 43.6074 169.376 41.0524V28.2903H165.471V40.8762C165.471 45.3128 168.476 48.346 173.56 48.346C178.645 48.346 181.647 45.3128 181.647 40.8762V28.2903H177.717V41.0524Z" fill="white"/>
<path id="Vector_6" d="M210.556 44.6929V39.6365H217.721V36.3516H210.556V31.55H220.386V28.2903H206.623V47.9495H220.411V44.6929H210.556Z" fill="white"/>
<path id="Vector_7" d="M89.3106 10.481L80.878 0.00952148L80.856 0.0315468V0.00952148H77.0078V19.6688H80.856V5.7676L89.3106 16.2643V19.6688H93.1587V0.00952148H89.3106V10.481Z" fill="white"/>
<path id="Vector_8" d="M150.801 40.6434L144.391 28.2903H140.543V47.9464H144.391V35.5964L149.057 44.7496H152.541L157.21 35.5964V47.9464H161.055V28.2903H157.21L150.801 40.6434Z" fill="white"/>
<path id="Vector_9" d="M125.828 40.6434L119.418 28.2903H115.57V47.9464H119.418V35.5964L124.085 44.7496H127.568L132.237 35.5964V47.9464H136.082V28.2903H132.237L125.828 40.6434Z" fill="white"/>
<path id="Vector_10" d="M87.7059 28.2903L80.9409 37.9626V28.2903H77.0078V47.9495H80.9409V44.2933L83.0459 41.2821L87.7059 47.9495H92.133L85.2611 38.1168L92.133 28.2903H87.7059Z" fill="white"/>
<path id="Vector_11" d="M198.365 38.7618L189.93 28.2903L189.911 28.3123V28.2903H186.062V47.9495H189.911V34.0484L198.365 44.545V47.9495H202.21V28.2903H198.365V38.7618Z" fill="white"/>
<path id="Vector_12" d="M176.166 0.00952148L169.404 9.68183V0.00952148H165.471V19.6688H169.404V16.0094L171.509 13.0014L176.166 19.6688H180.593L173.721 9.836L180.593 0.00952148H176.166Z" fill="white"/>
<path id="Vector_13" d="M146.916 19.6688L153.432 0.00952148H149.414L144.698 15.3707L139.978 0.00952148H135.963L142.479 19.6688H146.916Z" fill="white"/>
<path id="Vector_14" d="M161.06 0.00952148H157.127V19.6688H161.06V0.00952148Z" fill="white"/>
<path id="Vector_15" d="M121.639 13.3789H125.767L129.364 19.6718H133.914L129.823 12.7496C132.237 11.7112 133.697 9.46464 133.697 6.68314C133.697 2.8633 131.227 0 126.592 0H117.719V19.6561H121.639V13.3789ZM121.639 3.20942H126.104C128.492 3.20942 129.757 4.55926 129.757 6.67056C129.757 8.72207 128.521 10.2104 126.104 10.2104H121.639V3.20942Z" fill="white"/>
</g>
</svg>
