<svg width="702" height="592" viewBox="0 0 702 592" fill="none" xmlns="http://www.w3.org/2000/svg">
<path d="M185.627 591.508C149.526 587.737 134.789 584.199 112.799 574.021C97.6077 566.99 88.6721 561.321 77.0474 551.339C64.2299 540.332 56.2523 529.915 47.2619 512.447C40.4549 499.22 36.9628 488.593 34.0784 472.323C32.2872 462.221 31.8933 458.156 31.8983 449.824C31.9116 444.231 32.0377 438.91 32.2008 438C32.3638 437.09 32.705 434.559 32.9587 432.375C34.1085 422.492 39.1376 393.437 40.7479 387.377C43.7658 376.019 51.8587 353.973 57.1447 342.709C65.2817 325.37 71.0142 312.986 71.8488 310.945C73.6559 306.524 76.0351 304.083 76.0351 306.65C76.0351 307.776 70.1295 321.138 68.7157 323.211C68.2102 323.951 66.9268 326.631 65.8636 329.166C64.8002 331.701 62.5242 336.437 60.8059 339.69C55.1614 350.376 47.9423 369.45 44.2598 383.406C41.8592 392.505 38.7544 409.007 37.8478 417.486C37.5949 419.852 36.7508 425.212 35.9716 429.398C34.9054 435.127 34.5349 440.196 34.472 449.912C34.3949 461.765 34.5677 463.732 36.5976 474.065C40.8255 495.595 50.5975 517.878 62.1353 532.299C71.0891 543.491 83.7997 554.665 96.3489 562.378C110.053 570.8 135.06 580.236 152.364 583.516C177.012 588.186 210.955 590.183 232.226 588.214C236.253 587.841 241.281 587.383 243.399 587.194C253.115 586.331 262.175 585.113 266.155 584.134C269.437 583.327 269.475 583.319 279.463 581.628C288.065 580.171 310.051 575.03 316.129 573.054C318.301 572.348 325.593 570.069 332.333 567.989C370.032 556.358 405.924 539.853 441.575 517.753C482.716 492.25 515.128 465.467 548.9 429.067C575.334 400.575 603.798 360.32 619.086 329.805C635.442 297.158 645.653 263.475 648.876 231.535C650.65 213.955 650.6 207.903 648.496 185.571C646.569 165.103 646.455 162.714 647.407 162.714C648.323 162.714 648.604 163.783 650.535 174.625C654.392 196.277 655.126 211.044 653.067 225.58C652.732 227.945 652.255 231.817 652.007 234.182C649.703 256.125 641.05 287.847 630.886 311.607C624.577 326.357 614.891 345.362 608.527 355.478C599.214 370.284 584.56 391.447 578.879 398.295C576.313 401.389 572.541 406.218 570.496 409.027C563.844 418.169 552.024 430.81 529.881 452.463C508.887 472.994 489.046 489.629 470.006 502.662C415.778 539.783 368.624 561.881 309.542 577.861C294.087 582.042 273.877 586.286 261.606 587.927C260.258 588.108 258.456 588.399 257.6 588.575C256.745 588.75 250.443 589.509 243.595 590.261C229.645 591.794 195.412 592.53 185.627 591.508ZM205.585 584.078C205.392 583.894 200.35 583.569 194.38 583.357C175.943 582.701 162.295 580.814 145.801 576.637C130.778 572.833 124.137 570.479 112.085 564.685C99.9268 558.839 94.033 555.151 83.0749 546.529C62.1617 530.075 46.6683 503.551 40.2811 473.27C37.8739 461.857 36.4717 441.942 38.1443 442.919C38.584 443.175 38.7576 443.67 38.5302 444.018C38.3027 444.366 38.4834 444.569 38.9312 444.469C39.3794 444.368 40.3306 445.031 41.0448 445.941C42.2643 447.495 42.2833 447.957 41.3572 453.551C39.562 464.394 40.1855 467.378 44.5231 468.701C46.8301 469.405 46.977 469.623 47.0237 472.419C47.1434 479.576 47.3875 480.917 48.9677 483.118C49.8716 484.377 51.2711 487.173 52.0776 489.331C58.6103 506.818 63.4556 514.957 76.1149 529.709C89.3068 545.082 116.222 560.967 140.46 567.686C143.348 568.487 147.566 569.709 149.832 570.401C155.582 572.157 166.535 574.079 180.252 575.739C196.27 577.677 230.308 577.856 245.5 576.082C251.085 575.43 256.914 574.752 258.455 574.576C262.921 574.067 295.638 567.72 302.702 565.993C312.794 563.526 333.311 557.298 341.938 554.085C346.258 552.476 349.99 551.159 350.233 551.159C350.476 551.159 354.347 549.687 358.836 547.889C377.946 540.232 403.901 528.025 417.766 520.174C427.937 514.414 446.608 502.881 452.864 498.493C455.414 496.705 460.737 493.021 464.692 490.307C472.431 484.998 472.855 484.672 487.51 472.786C514.311 451.051 545.732 418.701 566.029 391.948C588.815 361.914 606.207 332.759 617.112 306.313C629.249 276.879 636.299 249.175 637.741 225.249C638.43 213.827 637.59 188.451 636.219 179.257C635.165 172.188 635.283 171.481 637.715 170.292C638.907 169.71 640.036 169.38 640.224 169.558C640.77 170.074 643.165 184.205 644.038 192.062C645.218 202.684 644.427 231.934 642.621 244.439C639.23 267.921 627.809 301.758 614.257 328.481C608.276 340.274 598.836 356.408 592.259 366.081C589.244 370.514 586.025 375.333 585.105 376.789C580.508 384.068 559.154 411.125 549.102 422.407C540.739 431.794 507.104 464.257 496.764 472.922C476.097 490.241 444.028 512.022 417.416 526.814C393.006 540.383 360.452 554.003 328.432 564.044C295.848 574.262 266.283 580.179 232.545 583.236C226.469 583.787 205.95 584.427 205.585 584.078ZM194.38 572.595C158.274 569.662 135.31 563.674 111.486 550.983C90.6199 539.868 70.3014 519.855 61.033 501.29C58.3864 495.988 54.1325 485.598 54.4832 485.292C54.9636 484.873 59.9288 483.806 59.9288 484.122C59.9288 484.316 59.4221 485.856 58.8026 487.542C57.0559 492.298 58.0783 494.018 62.9985 494.599L66.8451 495.053L70.8393 501.007C79.7825 514.338 86.3982 521.737 96.5434 529.752C108.929 539.538 122.871 547.301 138.009 552.842C146.767 556.047 167.416 561.326 174.073 562.061C176.191 562.295 179.815 562.784 182.126 563.147C192.3 564.746 232.697 564.513 249.001 562.76C276.589 559.795 311.516 551.803 337.935 542.41C375.663 528.997 401.065 516.92 432.822 497.299C461.74 479.431 482.426 462.846 512.148 433.699C531.622 414.601 545.547 398.49 561.05 377.12C587.74 340.328 602.939 311.002 613.473 275.968C617.135 263.788 621.1 246.478 622.362 237.16C623.378 229.655 623.612 198.583 622.718 189.81L622.142 184.149L626.338 181.368L630.534 178.586L630.928 180.411C634.135 195.247 633.82 228.919 630.305 247.086C627.176 263.259 618.716 291.639 613.341 303.996C598.84 337.332 584.141 361.751 558.969 394.325C535.852 424.239 496.139 462.887 466.919 483.905C439.281 503.786 413.646 519.019 386.954 531.425C367.035 540.683 356.982 544.667 333.384 552.657C308.557 561.063 272.439 569.078 249.001 571.382C238.822 572.383 201.872 573.203 194.38 572.595ZM192.812 554.045C181.315 552.459 164.719 548.972 156.748 546.469C148.662 543.93 139.169 540.278 138.15 539.315C137.726 538.914 136.799 538.586 136.09 538.586C135.381 538.586 133.947 538.037 132.904 537.366C127.992 534.208 125.281 532.63 124.767 532.63C124.458 532.63 123.269 531.886 122.125 530.976C120.981 530.066 119.624 529.321 119.11 529.321C118.596 529.321 117.38 528.428 116.408 527.336C115.436 526.244 114.18 525.351 113.617 525.351C113.055 525.351 111.626 524.309 110.442 523.035C109.259 521.761 107.887 520.719 107.393 520.719C106.476 520.719 105.891 520.229 97.3932 512.342C91.8654 507.211 90.6386 505.809 85.7788 499.076C82.5219 494.564 81.5689 492.264 82.9562 492.264C83.2964 492.264 85.5333 494.811 87.9273 497.925C95.0681 507.212 98.7052 510.812 109.286 519.064C116.584 524.756 122.162 528.491 128.205 531.734C145.365 540.941 159.329 545.597 180.725 549.248C190.888 550.982 203.492 553.732 204.85 554.512C206.316 555.354 200.727 555.137 192.812 554.045ZM227.993 542.446C216.731 541.878 192.177 538.474 181.411 535.989C157.033 530.36 134.23 519.201 114.885 503.434C108.531 498.255 99.3815 488.893 99.5691 487.762C99.6091 487.513 101.161 486.467 103.015 485.438L106.386 483.567L109.18 486.757C123.166 502.722 147.503 517.599 171.909 525.101C196.017 532.512 214.802 534.972 243.049 534.416C253.063 534.22 262.044 533.912 263.007 533.734C264.566 533.445 268.329 532.923 273.511 532.277C284.095 530.959 314.661 523.672 328.482 519.172C338.021 516.066 362.979 505.965 376.801 499.615C401.195 488.409 419.92 477.573 441.351 462.259C466.705 444.142 500.157 412.188 520.382 386.767C534.434 369.104 547.21 350.14 555.231 335.042C559.741 326.551 568.128 307.316 571.396 297.965C573.163 292.911 575.734 285.65 577.11 281.828C579.585 274.952 583.312 258.872 585.545 245.432C586.346 240.606 586.751 233.305 586.87 221.526C586.964 212.2 587.26 204.234 587.527 203.824C587.795 203.415 588.429 203.08 588.937 203.08C589.445 203.08 590.253 202.634 590.732 202.088C591.874 200.788 593.971 200.817 594.508 202.14C595.6 204.828 596.368 225.385 595.653 232.781C594.519 244.507 590.902 264.645 588.25 273.996C583.885 289.389 572.949 317.35 565.13 333.113C555.704 352.115 535.537 381.72 520.033 399.315C487.945 435.728 455.687 463.449 422.15 483.429C406.77 492.592 403.955 494.117 388.314 501.76C349.39 520.78 306.474 534.787 272.46 539.571C252.705 542.35 241.048 543.104 227.993 542.446ZM237.097 516.975C235.749 516.852 231.022 516.44 226.593 516.058C189.407 512.853 153.236 498.325 129.994 477.259C125.164 472.881 125.083 472.347 129.097 471.337C130.328 471.027 131.44 471.594 133.999 473.835C151.372 489.054 171.597 499.555 195.433 505.731C206.224 508.526 209.007 509 225.542 510.853C236.202 512.048 240.362 512.204 252.503 511.863C276.87 511.179 291.399 509.337 313.543 504.124C330.821 500.056 354.095 492.097 362.141 487.505C364.812 485.98 373.614 481.869 381.702 478.369C409.171 466.48 441.938 445.54 463.47 426.113C467.604 422.383 470.983 419.735 470.98 420.229C470.966 421.917 467.677 427.741 464.306 432.045C451.872 447.919 421.545 470.236 397.263 481.38C391.407 484.068 387.559 485.339 382.157 486.368C373.396 488.036 370.709 488.919 357.193 494.564C333.029 504.657 305.841 511.785 279.113 515.033C264.213 516.844 245.275 517.719 237.097 516.975ZM33.0852 488.505C32.4975 486.023 31.8009 481.609 31.5371 478.698C31.2734 475.786 30.8874 473.134 30.6794 472.805C30.4713 472.476 30.666 472.419 31.1096 472.679C31.5543 472.938 31.9182 473.988 31.9182 475.011C31.9182 476.035 32.5614 480.372 33.3476 484.651C34.9241 493.23 34.7631 495.593 33.0852 488.505ZM67.6318 486.742C67.6318 482.712 73.3977 471.168 80.2438 461.492C83.2613 457.228 85.8275 453.094 84.9675 453.882C84.769 454.064 82.9683 456.27 80.9661 458.784C69.625 473.022 63.5044 478.015 57.93 477.576C55.4744 477.382 55.3801 477.281 55.4542 474.921C55.5944 470.471 60.3206 464.291 73.363 451.505C91.9673 433.265 103.658 421.167 110.275 413.306C113.589 409.369 116.41 405.796 116.543 405.365C116.677 404.935 111.973 409.347 106.09 415.17C100.208 420.993 92.378 428.59 88.6908 432.051C85.004 435.512 77.3123 442.877 71.5985 448.416C63.1764 456.581 60.3645 458.88 56.7447 460.564C53.2473 462.191 51.757 462.549 49.8693 462.215C48.5438 461.98 47.2788 461.343 47.0583 460.799C46.502 459.43 49.554 451.754 51.9582 448.476C53.0519 446.984 56.6109 443.645 59.867 441.055C63.1234 438.465 68.5202 434.113 71.8599 431.383C75.1997 428.653 81.977 423.144 86.9207 419.14C96.9656 411.006 111.156 398.802 115.95 394.174C123.248 387.13 123.615 386.458 117.293 391.719C113.603 394.79 108.268 399.089 105.438 401.273C88.2085 414.569 83.199 418.455 75.3348 424.624C59.3735 437.145 52.8601 441.309 49.2336 441.309C47.4435 441.309 43.8224 438.185 43.8231 436.641C43.8237 436.115 44.7437 433.847 45.8681 431.601C47.7227 427.896 48.4853 427.156 54.0957 423.615C57.4963 421.469 65.9511 416.482 72.8839 412.533C89.5158 403.06 103.699 394.493 108.728 390.883C116.489 385.311 124.026 380.584 128.555 378.445C135.103 375.353 142.336 371.23 143.397 369.984C143.9 369.395 142.578 369.879 140.46 371.06C138.342 372.241 133.292 374.769 129.24 376.679C125.188 378.589 117.595 382.869 112.368 386.189C107.141 389.509 98.3242 394.833 92.7757 398.018C87.2274 401.204 79.9008 405.409 76.4946 407.362C68.4622 411.967 62.4084 414.839 60.7342 414.839C59.9209 414.839 59.0699 414.089 58.558 412.922C57.8656 411.342 57.9164 410.641 58.8484 408.938C59.9177 406.984 65.0006 402.928 66.38 402.928C66.7313 402.928 70.4596 400.998 74.6652 398.638C78.8708 396.279 84.3751 393.465 86.8969 392.385C89.4186 391.304 94.0726 388.947 97.2386 387.147C100.405 385.347 104.886 382.918 107.197 381.749C112.934 378.846 125.113 371.101 130.737 366.779C138.94 360.474 146.302 352.644 150.63 345.62C152.85 342.017 155.717 337.45 157.003 335.471C158.288 333.493 159.237 331.777 159.112 331.659C158.987 331.541 157.497 331.921 155.8 332.503C153.529 333.283 151.328 333.464 147.462 333.193C142.766 332.863 134.357 331.206 133.561 330.455C133.394 330.297 135.114 328.191 137.383 325.776C143.888 318.854 149.768 311.324 160.076 296.717C165.322 289.283 166.649 286.308 161.899 292.63C160.699 294.227 157.735 298.033 155.312 301.089C152.889 304.144 148.202 310.118 144.897 314.365C136.168 325.581 131.159 328.537 124.415 326.452C122.455 325.846 120.852 325.124 120.852 324.846C120.852 324.568 125.533 319.285 131.253 313.107C136.974 306.929 144.133 298.778 147.162 294.994C150.192 291.21 153.908 286.843 155.421 285.289C156.933 283.734 158.022 282.322 157.839 282.149C157.328 281.666 147.433 291.687 136.963 303.291C123.842 317.832 119.968 320.871 114.549 320.871C111.745 320.871 103.346 316.739 103.346 315.359C103.346 315.138 105.013 313.948 107.052 312.716C109.09 311.483 113.739 308.002 117.381 304.978C125.913 297.897 152.455 273.451 150.598 274.384C146.985 276.2 139.754 281.802 132.57 288.35C116.497 302.999 105.239 310.283 98.672 310.283C94.9419 310.283 91.2275 308.576 87.9544 305.356L85.5184 302.959L87.2543 302.542C93.2125 301.109 112.594 289.526 128.466 277.911C140.772 268.906 140.309 269.287 138.974 269.27C138.349 269.257 129.178 274.728 118.594 281.417C92.0675 298.182 87.5216 300.028 79.4944 297.301C76.0369 296.126 69.7326 291.665 69.7326 290.393C69.7326 290.07 71.5446 289.314 73.7591 288.713C82.4308 286.36 98.0774 279.995 115.194 271.857C125.046 267.173 133.877 262.765 134.819 262.061L136.531 260.783L133.716 261.269C132.167 261.537 127.3 263.429 122.9 265.473C99.9886 276.12 84.2934 282.201 75.5021 283.835C70.071 284.845 66.0851 284.016 61.0391 280.828C57.6486 278.685 53.1409 274.125 53.7988 273.503C53.9691 273.343 57.5449 272.906 61.7454 272.532C65.9458 272.159 72.186 271.234 75.6127 270.476C81.5186 269.171 97.4752 264.164 108.948 260.016C111.836 258.972 116.878 257.486 120.152 256.714C127.354 255.016 129.956 254.088 129.956 253.218C129.956 251.682 123.498 253.281 95.9928 261.631C77.4649 267.256 71.6799 268.556 64.7946 268.641C55.0812 268.761 50.2935 266.878 44.0603 260.488C38.3871 254.672 37.6809 255.027 54.9205 255.027C68.4297 255.027 80.0517 254.495 84.0881 253.691C84.8586 253.537 86.7492 253.252 88.2898 253.057C89.8303 252.862 96.1327 251.531 102.295 250.1C108.458 248.669 116.336 247.292 119.802 247.041C124.051 246.734 125.648 246.412 124.704 246.055C122.406 245.186 115.378 245.364 111.15 246.4C102.124 248.609 71.0155 252.353 62.0297 252.311C57.2624 252.288 48.5207 251.259 45.2135 250.331C42.1424 249.469 40.5236 248.358 35.825 243.887C32.4107 240.638 29.2443 236.864 27.8817 234.421C26.6354 232.186 25.6158 230.191 25.6158 229.987C25.6158 229.784 26.6595 230.029 27.9352 230.533C32.988 232.528 53.764 236.731 67.2818 238.492C73.5632 239.31 115.576 238.705 118.937 237.748C119.616 237.554 119.983 237.107 119.752 236.754C119.494 236.359 115.919 236.266 110.464 236.513C81.6737 237.816 64.3806 236.404 45.3064 231.191C33.9168 228.078 27.6086 224.172 20.6762 215.939C17.4766 212.14 12.0028 203.15 12.5647 202.619C12.6791 202.511 15.2691 203.428 18.3193 204.658C38.2914 212.711 43.2781 214.58 53.6265 217.888C66.1601 221.895 86.4616 226.08 102.059 227.87C112.38 229.055 115.95 229.147 115.95 228.226C115.95 227.863 115.783 227.565 115.578 227.565C113.551 227.565 88.8933 223.738 81.2138 222.231C41.7948 214.498 13.2913 198.154 5.61622 178.885L3.88077 174.528L5.46969 174.995C6.3436 175.252 19.3483 181.192 34.3692 188.195C49.3898 195.198 66.2487 202.634 71.8335 204.72C86.838 210.323 108.898 218.3 109.39 218.3C110.866 218.3 107.526 216.232 103.523 214.666C100.922 213.649 95.0124 211.253 90.3906 209.341C67.4729 199.86 58.3444 195.89 50.9011 192.166C46.4303 189.93 38.5353 186.501 33.3568 184.548C28.1784 182.594 21.6846 179.569 18.9266 177.826C12.8925 174.012 5.56839 166.82 3.31891 162.499C1.77869 159.541 -0.568666 149.518 0.125156 148.862C0.299761 148.697 2.24634 150.212 4.45096 152.23C8.59973 156.026 23.8583 167.719 28.7546 170.854C32.8055 173.448 33.3201 173.046 30.0672 169.827C23.2663 163.099 11.1097 147.157 7.23427 139.883C3.00469 131.945 -0.414235 115.573 0.839063 109.258L1.26996 107.088L4.16433 110.941C10.3242 119.141 23.1824 134.392 30.5196 142.2C33.0847 144.929 38.0637 150.763 41.584 155.163C50.8521 166.748 61.5717 176.028 77.0435 185.858C80.918 188.319 87.6817 192.769 92.0736 195.745C99.5195 200.791 103.928 203.455 102.295 201.923C100.656 200.384 84.3299 187.782 79.1863 184.085C66.0315 174.63 44.9194 155.124 41.0296 148.83C39.508 146.368 36.4224 142.008 34.1727 139.14C26.6063 129.497 16.6797 112.603 13.5617 104.062C10.7788 96.4393 10.7181 96.0809 10.7925 87.7221C10.8723 78.8226 11.233 76.4574 12.4535 76.8419C13.2214 77.0838 19.3946 86.9027 22.9651 93.5612C26.3549 99.8822 37.2705 116.758 42.8682 124.332C58.5552 145.558 64.8637 152.755 83.6722 170.883C92.3792 179.275 100.365 185.793 93.4524 178.865C91.6702 177.079 89.1492 174.239 87.8503 172.554C86.5514 170.87 81.9467 165.705 77.6177 161.078C62.732 145.167 51.4727 129.792 42.5358 113.172C36.7242 102.365 34.4083 96.8994 31.7714 87.7695C30.3991 83.0175 30.204 80.8132 30.2638 70.7309C30.3328 58.8746 30.8842 55.3226 32.7025 54.9915C34.0583 54.7447 35.0428 56.7804 42.052 74.3232C52.6247 100.784 60.2496 116.036 69.5549 129.337C74.4389 136.317 82.7874 146.832 83.4461 146.832C83.9979 146.832 81.3711 141.094 76.1751 130.95C67.3317 113.685 63.1299 101.489 61.3617 87.9537C60.0481 77.899 60.6767 61.4664 62.3748 61.4664C63.6852 61.4664 65.2075 65.2938 70.0077 80.6571C72.4526 88.4822 75.7714 98.1603 77.3826 102.164C85.751 122.959 101.114 148.314 116.275 166.353C123.742 175.237 125.139 176.629 140.091 190.075C159.345 207.39 162.578 211.332 169.153 225.514C170.739 228.935 173.149 233.317 174.507 235.252C180.081 243.188 197.366 258.648 206.417 263.793C209.672 265.643 211.064 265.998 216.468 266.35C223.209 266.791 224.317 266.6 243.704 261.665C261.079 257.243 272.125 257.149 280.729 261.352C282.922 262.423 286.46 264.152 288.594 265.195L292.472 267.091L287.099 271.833C284.143 274.442 281.851 276.695 282.005 276.841C282.16 276.987 284.802 276.803 287.877 276.434C298.334 275.178 318.345 277.4 316.056 279.564C315.833 279.774 310.187 280.685 303.509 281.587C293.894 282.887 290.484 283.629 287.124 285.155C276.782 289.85 262.641 302.53 257.156 312.028C249.621 325.077 242.299 333.908 233.901 340.076C231.682 341.706 224.286 347.26 217.465 352.419L205.065 361.798L204.985 358.457C204.891 354.48 203.06 347.14 201.469 344.363L200.333 342.378L200.134 345.025C200.025 346.481 200.219 350.054 200.567 352.966C200.915 355.878 201.256 362.398 201.325 367.456C201.454 376.894 202.615 385.215 204.511 390.292C205.853 393.887 205.864 394.987 204.559 394.987C203.252 394.987 202.083 397.034 202.083 399.326C202.083 400.825 201.92 400.976 201.042 400.288C200.469 399.839 199.535 399.64 198.967 399.846C197.538 400.364 195.757 398.029 192.965 391.976L190.609 386.87L189.794 389.44C188.892 392.283 188.775 392.146 186.986 386.138C186.185 383.45 185.42 382.152 184.502 381.925C183.773 381.745 183.176 381.09 183.176 380.469C183.176 378.681 181.009 373.149 180.309 373.149C179.96 373.149 179.628 373.819 179.571 374.638C179.513 375.457 179.403 376.574 179.325 377.12C179.246 377.666 179.135 378.643 179.078 379.292C179.006 380.108 176.345 381.684 170.45 384.401C162.753 387.95 160.811 389.162 160.778 390.438C160.765 390.667 163.469 390.118 166.771 389.218C170.073 388.319 172.921 387.722 173.102 387.893C173.282 388.063 172.799 389.212 172.029 390.445C167.614 397.517 162.302 414.551 158.955 432.375C157.764 438.712 156.679 442.689 155.953 443.373C154.541 444.703 147.568 448.246 147.147 447.848C146.687 447.414 154.004 418.96 156.784 410.372C158.11 406.278 158.955 402.928 158.664 402.928C157.737 402.928 151.212 420.149 148.886 428.736C145.34 441.826 140.567 455.06 138.841 456.584C136.937 458.266 130.439 461.823 129.269 461.823C127.844 461.823 128.15 460.97 140.448 430.721C145.042 419.422 148.163 411.159 148.163 410.296C148.163 408.555 141.265 423.096 128.899 450.904C122.224 465.914 120.111 468.746 113.073 472.117C109.26 473.942 107.547 474.161 107.547 472.821C107.547 472.318 112.31 462.863 118.131 451.81C127.544 433.937 132.026 425.007 135.355 417.486C136.271 415.419 136.267 415.277 135.322 416.163C133.994 417.407 127.402 428.965 119.66 443.625C112.18 457.789 104.52 470.804 101.279 474.856C99.9038 476.575 97.5474 478.772 96.0423 479.738C92.65 481.915 87.1339 483.836 85.1019 483.547C83.6392 483.339 83.7136 483.083 86.9019 477.374C88.7313 474.099 92.4326 467.994 95.127 463.808C111.661 438.123 124.681 416.912 124.194 416.453C123.848 416.125 117.603 424.247 113.478 430.39C108.521 437.771 98.9747 452.161 90.2295 465.433C80.0805 480.835 78.5364 482.785 73.9885 485.94C69.9563 488.737 67.6318 489.03 67.6318 486.742ZM170.919 371.822C169.552 369.732 171.127 357.801 173.45 352.648C174.174 351.041 174.16 351.031 172.796 352.199C170.809 353.897 168.413 359.514 167.983 363.478C167.537 367.596 168.789 372.487 170.289 372.487C170.875 372.487 171.158 372.188 170.919 371.822ZM157.95 342.73C159.94 340.193 163.673 336.289 166.245 334.053C168.817 331.817 170.134 330.365 169.171 330.825C166.49 332.107 157.114 341.365 155.294 344.529C154.403 346.075 153.823 347.341 154.004 347.341C154.185 347.341 155.961 345.266 157.95 342.73ZM237.252 324.594C239.285 323.729 241.935 322.017 243.141 320.788C245.716 318.166 249.264 312.93 248.466 312.93C248.162 312.93 245.716 315.027 243.03 317.59C240.345 320.153 236.808 322.995 235.171 323.905C230.266 326.632 231.498 327.04 237.252 324.594ZM204.133 296.411C207.111 294.996 211.886 293.224 214.744 292.473C217.602 291.722 224.037 290.029 229.044 288.71C234.051 287.391 238.935 285.91 239.898 285.42L241.649 284.528L239.198 284.409C232.901 284.103 231.439 283.953 226.964 283.155C220.59 282.018 209.523 282.642 203.134 284.498C198.281 285.908 195.299 287.408 198.633 286.761C201.851 286.138 222.743 285.82 223.678 286.38C224.291 286.747 221.928 287.571 216.868 288.757C205.832 291.345 199.273 294.481 190.642 301.296C184.765 305.936 185.522 306.545 192.324 302.648C195.841 300.632 201.156 297.826 204.133 296.411ZM238.847 293.168C245.395 289.853 250.335 287.136 249.825 287.131C247.352 287.106 237.803 290.798 233.677 293.373C228.597 296.544 224.234 299.977 225.892 299.498C226.47 299.331 232.3 296.483 238.847 293.168ZM278.102 270.537C279.532 269.044 279.093 267.722 276.671 266.222C275.238 265.334 274.503 265.248 273.193 265.812C270.561 266.945 270.185 269.228 272.342 270.981C274.356 272.618 276.249 272.472 278.102 270.537ZM159.32 221.508C156.403 216.077 153.475 212.657 143.264 202.749C132.998 192.789 127.007 186.268 118.792 176.114C116.362 173.111 114.252 170.655 114.102 170.655C113.53 170.655 118.356 179.129 121.451 183.559C127.301 191.93 133.955 199.263 147.279 212.022C154.505 218.942 160.518 224.554 160.641 224.494C160.765 224.434 160.17 223.09 159.32 221.508ZM302.572 482.996C284.557 480.095 269.848 475.671 254.253 468.462C233.935 459.069 220.38 449.887 204.742 434.924C191.615 422.364 176.173 402.973 176.173 399.049C176.173 398.706 177.316 397.789 178.713 397.01L181.253 395.594L182.354 397.11C182.96 397.944 185.362 400.528 187.692 402.853C194.365 409.509 199.986 411.318 208.345 409.497C210.055 409.125 213.098 409.014 215.106 409.251L218.758 409.682L217.08 413.088C213.212 420.939 216.735 430.952 224.72 434.802C227.151 435.973 227.894 436.054 230.209 435.399C232.958 434.621 234.996 432.113 234.996 429.508C234.996 428.805 237.091 426.279 239.651 423.895L244.307 419.56L247.286 421.666C248.925 422.825 251.274 424.297 252.506 424.939C254.214 425.828 254.618 426.378 254.206 427.255C253.908 427.887 253.53 429.662 253.365 431.199C252.974 434.842 255.013 438.039 258.74 439.627C266.611 442.981 277.174 434.442 277.174 424.724C277.174 422.736 276.499 420.186 275.342 417.798C274.335 415.719 273.511 413.783 273.511 413.496C273.511 413.209 274.85 413.601 276.487 414.368C284.619 418.178 291.718 413.708 291.718 404.777C291.718 399.454 289.172 395.116 283.816 391.311C278.273 387.374 276.833 386.705 271.783 385.721C266.6 384.711 260.773 385.226 252.859 387.393C249.57 388.294 245.606 389.031 244.049 389.031C239.947 389.031 235.17 387.744 234.587 386.482C233.788 384.754 233.341 367.855 234.094 367.855C234.457 367.855 236.778 368.642 239.252 369.603C242.307 370.791 245.274 371.402 248.503 371.509C251.618 371.612 253.67 372.02 254.457 372.693C258.788 376.397 269.822 376.58 273.964 373.016C275.401 371.78 275.572 371.772 277.753 372.838C282.081 374.953 291.272 373.115 294.908 369.407C296.314 367.974 296.952 367.728 297.884 368.259C301.48 370.308 310.912 368.471 314.762 364.972C316.789 363.13 317.84 362.682 320.168 362.666C323.306 362.645 327.683 361.164 329.694 359.445C330.484 358.769 332.33 358.33 334.621 358.273C336.637 358.223 339.629 357.814 341.271 357.365C344.512 356.48 348.821 353.303 349.492 351.305C349.724 350.613 350.33 350.207 350.848 350.395C352.28 350.914 360.309 349.384 363.837 347.919C367.467 346.412 370.036 344.338 370.905 342.212C371.363 341.091 372.079 340.722 373.807 340.717C377.989 340.705 386.254 335.159 386.254 332.362C386.254 331.866 386.805 331.453 387.479 331.445C389.939 331.416 394.536 328.882 399.607 324.759C407.768 318.126 409.918 315.743 412.603 310.353C414.982 305.577 417.379 302.342 418.537 302.342C418.827 302.342 419.009 304.598 418.941 307.354C418.821 312.195 418.891 312.43 421.006 314.22C422.21 315.24 423.596 316.2 424.085 316.354C424.775 316.572 424.684 317.445 423.681 320.242C422.035 324.832 422.006 330.444 423.613 333.308C424.927 335.649 428.195 337.9 431.144 338.496C432.89 338.849 432.966 339.054 432.966 343.355C432.966 350.879 436.706 356.257 443.183 358.044C446.79 359.04 447.153 359.499 447.167 363.079C447.192 369.726 452.787 376.091 458.471 375.939C462.651 375.827 470.253 370.68 472.94 366.142C473.624 364.988 473.818 364.976 476.005 365.948C483.043 369.079 493.892 363.877 496.971 355.896C498.195 352.724 498.674 352.107 499.444 352.71C499.969 353.122 500.398 354 500.398 354.662C500.398 360.194 484.84 389.304 474.602 402.928C466.376 413.873 448.857 429.744 431.552 441.927C420.733 449.544 398.101 463.482 391.305 466.714C380.218 471.986 360.768 479.812 355.69 481.043C337.544 485.445 321.453 486.037 302.572 482.996ZM30.3147 470.426C30.1133 469.698 30.2349 469.102 30.5832 469.102C30.9322 469.102 31.218 469.698 31.218 470.426C31.218 471.154 31.097 471.749 30.9494 471.749C30.8017 471.749 30.5161 471.154 30.3147 470.426ZM29.8726 466.731C29.906 465.96 30.0722 465.803 30.2958 466.331C30.498 466.809 30.4732 467.38 30.2402 467.6C30.0076 467.82 29.8421 467.429 29.8726 466.731ZM29.1723 462.099C29.2056 461.328 29.372 461.171 29.5954 461.699C29.7979 462.177 29.773 462.748 29.5397 462.968C29.3069 463.187 29.1419 462.797 29.1723 462.099ZM264.027 432.949C266.085 428.173 265.841 424.067 263.384 422.14C262.627 421.546 262.337 421.804 261.965 423.403C261.709 424.508 261.208 425.582 260.852 425.789C259.988 426.294 260.031 423.963 260.926 421.735C261.43 420.483 261.415 419.276 260.876 417.731C259.687 414.328 258.518 414.114 258.982 417.385C259.197 418.896 259.233 420.133 259.064 420.133C258.029 420.133 255.074 417.661 254.2 416.064C253.632 415.027 252.624 414.174 251.96 414.17C251.296 414.158 249.194 412.996 247.288 411.57C243.346 408.618 242.673 408.71 239.507 412.633C236.076 416.883 235.171 417.486 232.222 417.486C229.554 417.486 229.418 417.592 228.651 420.282C228.213 421.819 228.047 424.574 228.282 426.403L228.709 429.728L227.067 427.999C226.117 426.999 225.044 424.573 224.52 422.244C223.214 416.425 224.442 414.496 232.937 409.026C236.573 406.685 241.124 403.45 243.049 401.838C246.281 399.131 246.362 398.994 244.1 400.057C238.447 402.711 211.81 401.554 208.238 398.5C206.129 396.696 206.788 396.31 211.975 396.31H216.964L216.519 394.16C216.273 392.977 215.437 391.264 214.66 390.354C213.883 389.445 211.818 385.989 210.07 382.674C207.424 377.655 206.831 375.831 206.522 371.756L206.152 366.863L210.245 363.894C212.496 362.262 217.299 358.579 220.918 355.71L227.498 350.495L227.067 353.054C225.146 364.447 224.419 379.886 225.47 386.979C225.898 389.867 225.867 391.079 225.374 390.791C224.976 390.559 224.262 390.812 223.786 391.354C222.327 393.015 224.141 394.151 229.608 394.999C232.379 395.429 236.358 396.049 238.451 396.377C244.576 397.335 248.376 397.08 254.655 395.289C263.606 392.738 268.098 392.518 273.547 394.366C281.636 397.109 283.315 398.966 283.315 405.172C283.315 409.372 282.283 410.628 281.687 407.154C281.132 403.923 278.242 400.548 275.222 399.607C273.844 399.177 272.524 399.008 272.287 399.231C272.051 399.455 270.99 398.852 269.929 397.891C267.973 396.121 266.197 396.046 263.707 397.628C262.069 398.669 264.225 399.689 267.036 399.203C270.254 398.647 273.597 400.343 275.461 403.477C277.535 406.964 277.45 407.66 275.087 406.573C274.027 406.086 270.154 405.106 266.478 404.395C262.803 403.685 258.769 402.602 257.515 401.989C255.331 400.922 255.135 400.933 252.855 402.265C250.829 403.448 249.028 405.957 249.813 406.502C249.945 406.594 252.494 407.494 255.478 408.504C262.198 410.778 266.19 414.537 268.161 420.447C269.965 425.855 268.558 431.623 264.994 433.425C263.667 434.097 263.556 434.042 264.027 432.949ZM30.628 430.059C30.628 429.149 30.7871 428.777 30.9815 429.232C31.1757 429.687 31.1757 430.431 30.9815 430.886C30.7871 431.341 30.628 430.969 30.628 430.059ZM30.8696 418.479C31.4539 402.635 38.9327 373.911 48.3266 351.432C54.8824 335.743 66.7023 311.169 67.383 311.812C67.6812 312.094 66.2521 315.338 56.3957 336.753C44.3076 363.017 37.9219 384.595 31.6226 420.464L30.5766 426.42L30.8696 418.479ZM34.7087 400.667C34.7235 398.974 34.3221 399.502 33.746 401.935C33.4029 403.385 33.4678 403.653 33.987 402.928C34.3778 402.382 34.7027 401.364 34.7087 400.667ZM41.9297 414.778C42.3894 407.436 45.9724 389.587 49.4109 377.51C54.5408 359.491 63.0313 339.136 75.3125 315.412C78.1163 309.995 79.5174 308.648 80.6094 310.318C81.0932 311.057 77.7744 319.441 74.598 325.503C71.5868 331.25 61.0132 356.298 58.6748 363.223C54.1315 376.678 51.1758 390.212 47.9375 412.392C47.2003 417.441 46.8463 418.375 45.2797 419.398C41.2871 422.005 41.4619 422.246 41.9297 414.778ZM52.5023 403.045C52.6886 402.435 53.1895 399.553 53.6154 396.641C55.5947 383.111 61.6745 361.731 67.4466 348.003C70.6934 340.281 82.3984 315.262 83.0573 314.635C83.9752 313.763 87.2395 315.31 87.2395 316.617C87.2395 317.205 83.8095 325.624 79.6174 335.326C75.4254 345.028 71.347 354.901 70.554 357.267C68.3139 363.951 64.2942 378.449 63.7654 381.752C63.1697 385.472 60.6882 397.577 60.2106 399.092C60.0151 399.712 58.1246 401.105 56.0095 402.187C52.9605 403.748 52.2338 403.926 52.5023 403.045ZM487.793 401.428C487.793 399.963 493.192 391.793 498.596 385.082C503.025 379.581 515.54 362.183 521.323 353.488C529.077 341.831 542.638 316.507 546.693 306.114C549.62 298.612 553.387 284.528 555.49 273.225C557.886 260.342 558.518 238.481 556.842 226.46C555.288 215.314 555.248 215.653 558.114 215.653C560.506 215.653 560.51 215.666 561.744 220.451C563.178 226.019 563.775 251.246 562.688 260.321C560.773 276.31 556.554 293.471 551.247 306.857C547.297 316.819 538.937 334.114 535.037 340.393C533.454 342.94 531.33 346.663 530.317 348.665C526.546 356.118 509.771 378.949 500.415 389.362C498.126 391.91 494.637 395.855 492.662 398.13C489.142 402.185 487.793 403.099 487.793 401.428ZM83.3411 382.91C83.5429 381.727 84.0498 378.377 84.4675 375.465C85.8818 365.61 90.1203 349.052 94.3771 336.753C96.7076 330.02 98.7668 324.265 98.9531 323.965C99.1393 323.664 100.067 324.107 101.015 324.949C103.107 326.806 103.015 327.529 99.1202 339.731C96.1719 348.967 93.2164 360.839 92.5302 366.201C92.0467 369.98 90.1389 380.266 89.6459 381.752C89.3261 382.715 85.0958 385.061 83.6774 385.061C83.2758 385.061 83.1315 384.139 83.3411 382.91ZM106.858 370.323C106.888 362.594 112.081 336.342 114.068 333.876C114.802 332.965 115.061 332.957 116.269 333.812C117.547 334.717 117.577 335.032 116.727 338.58C115.029 345.67 114.436 348.98 112.916 359.859L111.399 370.723L109.123 371.923L106.847 373.123L106.86 370.324L106.858 370.323ZM262.43 366.883C260.38 366.418 258.376 365.729 257.977 365.352C257.476 364.878 258.683 363.004 261.871 359.303C269.237 350.751 279.088 336.454 280.143 332.783L280.619 331.128L279.341 332.878C267.971 348.439 260.206 357.883 256.499 360.659C252.346 363.77 249.888 364.233 244.203 362.972C239.584 361.947 238.216 361.269 239.736 360.757C243.69 359.424 261.622 343.754 265.229 338.481C269.086 332.842 268.728 330.924 264.767 336.008C261.386 340.348 248.897 352.094 242.818 356.651C240.601 358.313 237.965 359.643 236.326 359.926L233.566 360.403L233.92 358.339C235.746 347.665 235.046 348.964 243.062 341.385C251.97 332.964 255.237 328.935 261.693 318.412C264.569 313.723 268.844 307.978 271.871 304.732L277.089 299.137L282.128 300.774C294.878 304.915 300.056 305.696 319.728 306.441C329.935 306.828 340.413 307.087 343.012 307.017C345.612 306.948 347.739 307.05 347.739 307.247C347.739 307.442 346.784 308.069 345.616 308.64C340.147 311.312 347.933 311.458 358.243 308.876C364.089 307.413 375.029 302.196 383.284 296.935C386.265 295.035 391.777 290.512 395.533 286.885C400.639 281.952 402.36 280.634 402.36 281.654C402.36 284.731 393.365 293.684 382.508 301.412C380.255 303.015 378.809 304.327 379.294 304.327C380.655 304.327 392.531 298.116 400.426 293.274C404.332 290.879 410.345 286.57 413.79 283.697C417.234 280.824 420.195 278.609 420.369 278.774C421.162 279.522 417.768 284.488 413.634 288.629C409.369 292.902 396.93 302.342 395.566 302.342C394.823 302.342 387.087 306.933 387.788 306.958C390.54 307.054 407.856 299.197 415.315 294.468C420.036 291.474 420.185 291.449 418.136 293.987C415.437 297.331 403.471 304.743 395.358 308.096C389.708 310.43 386.751 311.144 375.75 312.827C354.449 316.087 353.969 316.192 362.095 315.813C372.543 315.326 389.004 313.093 395.736 311.249C399.006 310.354 401.991 309.621 402.371 309.621C404.032 309.621 402.776 311.011 399.208 313.12C391.587 317.625 373.742 320.973 361.898 320.121C358.54 319.879 353.586 319.499 350.89 319.275L345.989 318.869L350.54 320.189C353.044 320.915 359.048 321.848 363.883 322.263C371.352 322.903 374.075 322.848 381.982 321.897C387.102 321.281 391.431 320.911 391.603 321.073C392.082 321.526 387.363 323.996 383.893 325.109C374.398 328.156 359.479 328.199 347.516 325.214C343.735 324.27 339.481 322.945 338.063 322.269C334.386 320.517 332.333 319.995 332.333 320.812C332.333 323.497 356.565 329.793 372.136 331.155C374.963 331.402 377.011 331.839 376.688 332.126C376.365 332.412 372.998 333.316 369.207 334.134C363.429 335.38 361.107 335.557 354.851 335.225C350.747 335.008 345.498 334.356 343.187 333.778C337.739 332.413 321.299 325.173 318.99 323.121C317.157 321.493 315.527 321.041 315.527 322.16C315.527 325.171 339.521 335.227 354.37 338.439C360.708 339.811 361.725 340.332 359.881 341.265C354.931 343.768 339.923 343.858 331.621 341.435C325.349 339.604 315.483 333.929 310.007 329.001C307.494 326.74 305.357 324.966 305.257 325.061C304.905 325.394 307.237 329.163 308.746 330.7C309.587 331.556 313.746 334.446 317.988 337.122C324.632 341.312 329.368 343.684 339.686 347.989L341.787 348.865L338.636 349.8C333.935 351.193 326.526 350.601 321.509 348.431C319.257 347.457 317.297 346.77 317.154 346.906C317.011 347.041 318.477 348.513 320.412 350.177C322.347 351.841 323.93 353.495 323.93 353.853C323.93 354.911 318.707 355.429 315.717 354.668C312.302 353.799 311.683 353.125 307.469 345.686C302.718 337.299 301.78 335.53 300.136 331.861C299.338 330.081 298.513 328.786 298.304 328.984C297.543 329.704 300.976 338.588 305.063 346.475C307.362 350.913 309.436 355.454 309.671 356.566C310.061 358.408 309.875 358.677 307.584 359.582C304.057 360.974 298.528 360.887 297.156 359.417C295.713 357.871 295.384 356.188 293.844 342.431C293.12 335.968 292.346 330.508 292.123 330.297C291.806 329.998 291.365 338.967 291.606 340.808C292.247 345.691 292.389 359.322 291.814 360.714C290.507 363.88 282.115 366.63 279.112 364.876C277.935 364.189 278.565 360.426 280.774 354.95C283.058 349.288 284.708 343.458 285.165 339.439C285.354 337.779 285.662 335.984 285.849 335.449C286.036 334.914 285.979 334.676 285.721 334.92C285.463 335.163 283.759 339.654 281.934 344.899C276.939 359.257 272.525 366.161 267.559 367.384C266.788 367.574 264.481 367.349 262.43 366.883L262.43 366.883ZM330.012 312.624C332.637 312.092 336.202 311.219 337.935 310.682L341.087 309.707L337.235 310.161C332.218 310.751 313.464 310.745 308.524 310.148C304.673 309.685 304.673 309.685 306.773 310.762C311.974 313.428 322.055 314.234 330.012 312.622V312.624ZM456.595 366.242C453.837 362.264 454.21 356.936 458.423 340.172C463.236 321.021 468.346 285.137 466.261 285.137C465.868 285.137 465.322 286.849 465.047 288.942C464.259 294.966 459.335 319.12 457.051 328.173C454.668 337.616 451.089 348.3 449.577 350.484C447.994 352.769 446.808 352.305 443.649 348.168L440.744 344.363L441.097 339.4C441.376 335.478 442.785 330.652 447.815 316.399C454.942 296.207 458.913 283.391 459.5 278.692C459.761 276.611 458.345 279.857 455.33 288.256C448.113 308.361 442.387 322.855 439.962 327.158C437.264 331.944 435.495 332.532 432.328 329.695C430.307 327.884 430.25 327.672 430.674 323.518C431.057 319.776 432.077 317.414 438.52 305.357C446.606 290.224 450.402 282.35 453.535 274.218C456.241 267.191 456.097 266.416 453.226 272.564C448.106 283.53 435.659 305.815 433.18 308.454C430.647 311.152 430.478 311.223 428.69 310.318C427.668 309.802 426.638 308.65 426.402 307.759C425.818 305.561 427.826 299.737 431.234 293.739C439.641 278.947 442.358 274.276 446.054 268.262C451.234 259.834 451.517 259.554 456.212 258.216C458.368 257.602 460.467 256.727 460.876 256.272C461.286 255.817 462.974 254.057 464.628 252.361L467.636 249.277L470.712 250.387C472.404 250.998 474.113 251.396 474.508 251.271C474.904 251.147 474.236 249.566 473.023 247.76C470.7 244.297 470.548 243.496 471.364 238.98C471.664 237.318 471.601 236.167 471.21 236.167C470.341 236.167 467.577 239.038 464.668 242.961C463.295 244.813 462.134 245.816 461.857 245.392C461.568 244.951 460.457 245.68 459.007 247.261C456.48 250.019 454.119 251.633 451.554 252.356C450.305 252.708 449.978 252.538 449.978 251.535C449.978 249.087 447.879 248.256 440.863 247.929C434.47 247.63 433.96 247.49 428.367 244.492C425.16 242.772 422.397 241.497 422.226 241.659C422.055 241.82 423.705 243.703 425.892 245.843C430.127 249.986 432.431 253.86 432.456 256.88C432.479 259.635 430.601 262.637 428.855 262.637C427.488 262.637 427.407 262.381 427.793 259.297C428.123 256.667 427.987 255.875 427.151 255.573C426.568 255.361 424.572 253.067 422.716 250.475C420.86 247.883 418.117 244.465 416.62 242.878L413.899 239.993L410.214 241.027C408.188 241.596 404.635 242.263 402.32 242.511C397.717 243.003 394.657 244.727 394.657 246.827C394.657 247.92 394.436 248.014 393.257 247.417C391.66 246.61 391.391 243.811 392.659 241.183C393.504 239.429 398.191 237.541 402.551 237.196C403.794 237.098 405.441 236.971 406.212 236.913C407.381 236.827 407.439 236.703 406.562 236.167C403.642 234.385 392.505 236.398 389.93 239.175C388.019 241.236 387.748 247.036 389.421 250.093C390.007 251.164 390.806 252.861 391.197 253.865L391.907 255.689L390.091 253.704C386.543 249.823 385.356 246.396 385.9 241.598C386.528 236.056 387.319 234.488 390.401 232.677C392.547 231.416 393.861 231.209 399.559 231.238C405.098 231.267 407.091 231.585 411.464 233.142C418.776 235.746 428.091 238.075 431.421 238.133C434.197 238.182 437.662 239.5 442.153 242.218C444.218 243.467 444.792 243.539 447.223 242.85C449.327 242.255 450.064 241.656 450.392 240.279C450.627 239.291 451.1 237.419 451.444 236.117C451.787 234.815 452.727 230.051 453.533 225.529C454.339 221.007 455.602 215.229 456.34 212.689C457.078 210.148 457.68 207.022 457.679 205.741V203.411L456.233 205.652C454.151 208.878 452.069 214.083 451.119 218.43L450.295 222.199L444.937 215.783C441.991 212.254 436.191 205.793 432.05 201.426C419.361 188.045 416.496 183.629 409.665 166.927C404.508 154.318 401.247 149.245 393.747 142.165C388.381 137.1 384.006 134.834 375.366 132.646C371.92 131.774 367.209 130.378 364.898 129.546C360.826 128.078 360.761 128.018 362.798 127.584C368.371 126.395 383.566 127.472 393.042 129.727C394.732 130.129 396.296 130.286 396.519 130.076C397.09 129.536 387.614 119.7 386.522 119.7C386.028 119.7 387.184 121.175 389.091 122.977C393.03 126.7 393.398 127.734 390.633 127.318C389.574 127.158 386.619 126.716 384.066 126.336C376.478 125.206 365.303 125.381 361.858 126.684C360.225 127.302 358.7 127.629 358.469 127.411C357.531 126.525 362.143 122.103 365.524 120.647C371.003 118.289 381.243 117.289 385.402 118.706C386.5 119.081 394.597 117.501 398.775 116.097C403.116 114.639 413.428 114.75 419.947 116.325C422.809 117.017 431.516 120.295 439.296 123.61C455.576 130.545 460.599 131.898 468.188 131.39C475.596 130.893 488.675 126.66 500.48 120.939C509.358 116.635 511.036 115.516 519.148 108.487C530.243 98.8738 537.445 94.2729 546.998 90.6959C551.869 88.8717 565.966 82.5983 574.279 78.5554C599.533 66.2722 623.629 43.5416 643.254 13.4898C650.367 2.59741 651.422 1.24754 652.818 1.24754C654.245 1.24754 653.978 5.31858 652.082 12.4972C649.734 21.3833 646.756 28.287 641.638 36.7117C636.126 45.7836 631.243 51.992 623.03 60.3679C615.918 67.6208 614.832 69.7857 619.552 67.299C622.517 65.7367 631.085 59.0867 637.203 53.5987C645.637 46.0341 662.429 26.9555 669.885 16.4677C679.11 3.49265 684.42 -2.16771 684.631 0.75114C685.121 7.54548 682.411 18.717 678.35 26.6398C672.979 37.119 661.275 50.926 647.649 62.8574C635.935 73.1144 624.457 80.7812 600.539 94.3248C594.572 97.7035 594.335 97.9301 598.105 96.6506C607.933 93.3147 635.791 77.2116 651.659 65.6945C664.104 56.6611 682.959 39.4309 695.61 25.5298C696.867 24.1485 698.156 23.1704 698.474 23.3562C699.083 23.7118 698.435 29.3257 697.162 34.7576C696.098 39.2906 691.551 47.9081 687.585 52.9067C683.462 58.1039 669.162 71.7141 662.51 76.7725C652.404 84.4573 642.256 90.1484 625.399 97.5837C608.966 104.832 599.06 107.813 583.032 110.334L579.181 110.94L583.382 111.016C590.14 111.136 600.79 109.317 609.551 106.546C624.412 101.845 646.57 91.7665 664.862 81.3879C679.128 73.2926 681.236 71.8461 693.324 61.8559C697.946 58.0365 701.835 55.2006 701.965 55.5541C702.402 56.7356 698.619 68.0433 696.387 72.2254C691.537 81.3165 684.103 89.2115 674.708 95.25C669.023 98.9045 651.352 107.384 646.056 109C636.497 111.915 630.105 113.625 624.698 114.713C613.946 116.875 598.833 120.956 599.442 121.532C599.638 121.717 601.147 121.532 602.795 121.123C608.231 119.769 614.917 118.461 623.366 117.099C633.391 115.482 652.236 111.13 659.011 108.866C669.075 105.503 685.061 99.2011 687.861 97.4934C690.43 95.9257 690.301 97.4696 687.405 102.923C677.613 121.358 648.194 131.079 610.343 128.386C604.758 127.989 599.401 127.481 598.438 127.258C596.709 126.856 596.712 126.867 598.649 128.142C600.126 129.115 602.977 129.661 610.203 130.357C625.183 131.8 639.171 131.502 656.061 129.378C664.067 128.371 670.915 127.643 671.28 127.76C672.705 128.217 665.379 135.667 660.427 138.797C652.59 143.75 646.809 145.161 631.576 145.836C625.018 146.127 620.813 145.907 613.369 144.882C608.046 144.149 598.963 142.965 593.186 142.25C581.2 140.767 574.576 139.53 566.576 137.279C563.495 136.411 559.871 135.495 558.523 135.242C554.668 134.518 556.851 135.98 561.324 137.118C563.442 137.656 568.322 139.03 572.167 140.171C576.012 141.312 582.315 142.686 586.172 143.223C590.03 143.761 598.543 145.221 605.091 146.468C617.401 148.813 625.999 149.781 641.33 150.549C647.847 150.875 650.258 151.224 650.258 151.84C650.258 153.391 641.563 160.087 636.371 162.534C631.732 164.721 630.688 164.955 625.517 164.964C622.371 164.977 617.275 164.429 614.194 163.764C604.529 161.675 579.816 152.852 567.626 147.139C559.814 143.477 550.377 140.024 549.198 140.395C548.807 140.518 552.242 142.202 556.831 144.137C566.037 148.019 565.666 147.852 578.33 153.864C587.613 158.272 605.569 165.316 611.016 166.687C612.735 167.119 616.773 168.373 619.989 169.473L625.838 171.473L624.332 172.988C622.085 175.248 615.164 178.519 611.083 179.251C606.049 180.153 601.677 179.153 592.486 174.996C584.791 171.515 574.41 165.319 559.223 155.141C550.746 149.459 543.868 145.509 542.453 145.509C541.403 145.509 544.537 148.026 548.733 150.552C552.1 152.579 556.396 155.497 569.999 165C580.032 172.009 591.848 179.217 599.338 182.898C602.3 184.354 604.626 185.842 604.506 186.206C604.387 186.57 602.005 187.985 599.214 189.35C592.954 192.411 587.918 192.718 582.97 190.342C577.402 187.668 567.582 179.844 551.411 165.196C542.671 157.28 535.35 150.803 535.141 150.803C534.932 150.803 535.673 152.068 536.787 153.615C538.749 156.338 552.766 169.605 572.807 187.707C584.62 198.377 584.752 197.219 571.128 202.445C565.708 204.523 559.504 204.9 556.01 203.363C552.469 201.804 542.673 192.413 536.319 184.487C533.576 181.065 529.539 175.139 527.347 171.317C523.218 164.117 518.582 156.759 518.175 156.759C517.036 156.759 528.92 178.473 532.843 183.559C534.808 186.107 539.972 192.396 544.318 197.534C548.664 202.673 552.22 207.206 552.22 207.607C552.22 208.582 544.852 210.618 541.506 210.568C539.722 210.541 538.27 210.018 537.102 208.981C534.505 206.675 529.389 198.778 522.563 186.537C519.214 180.532 515.838 174.874 515.06 173.964L513.646 172.31L514.64 174.626C517.472 181.222 526.295 197.409 529.429 201.757C535.868 210.692 536.165 213.007 530.869 213.007C524.861 213.007 520.339 207.399 513.527 191.5C511.811 187.497 510.004 182.798 509.509 181.059C509.015 179.32 508.469 178.03 508.296 178.194C507.107 179.317 512.822 195.223 518.181 205.709C522.108 213.392 521.828 213.832 514.199 211.964C508.986 210.687 505.42 209.013 502.171 206.317C500.812 205.19 499.7 204.434 499.7 204.637C499.7 204.84 501.302 211.199 503.26 218.767C507.211 234.044 511.245 246.358 514.921 254.366C520.561 266.653 522.524 270.774 527.373 280.505C532.78 291.355 536.815 301.654 536.815 304.605C536.815 308.029 535.121 309.995 530.364 312.096C529.356 312.541 526.217 307.015 522.178 297.686C519.899 292.422 516.575 284.84 514.79 280.836C513.006 276.833 509.476 268.346 506.947 261.976C504.418 255.607 502.044 249.949 501.672 249.403C501.153 248.642 501.1 248.72 501.445 249.734C501.693 250.462 503.293 255.382 505.001 260.667C506.708 265.951 509.726 274.438 511.706 279.526C513.686 284.614 516.978 293.433 519.022 299.124C526.609 320.246 527.231 325.604 522.607 329.974C520.298 332.156 519.919 332.296 518.252 331.578C515.274 330.296 513.445 325.19 508.133 303.336C502.615 280.636 499.878 270.535 499.013 269.687C498.699 269.378 498.864 271.027 499.379 273.351C499.895 275.674 500.975 281.287 501.78 285.823C502.584 290.36 504.336 299.282 505.671 305.652C510.306 327.753 511.344 338.708 509.178 342.665C507.911 344.982 505.335 345.664 502.332 344.478C498.269 342.873 498.018 342.143 496.607 327.82C494.709 308.561 492.466 289.64 491.643 285.961L490.646 281.498L490.987 289.108C491.175 293.293 491.629 302.078 491.996 308.629C493.974 343.982 493.777 347.697 489.652 352.772C486.781 356.304 481.358 359.223 479.595 358.186C478.16 357.343 477.958 351.839 478.845 337.746C480.404 312.948 480.275 282.436 478.645 290.762C478.36 292.218 477.622 300.258 477.004 308.629C476.386 317.001 475.422 327.274 474.861 331.46C474.3 335.645 473.648 340.559 473.412 342.379C472.365 350.446 469.749 358.392 467.032 361.759C465.36 363.83 459.571 367.856 458.263 367.856C457.963 367.856 457.213 367.13 456.598 366.243L456.595 366.242ZM450.713 270.247C452.57 266.805 453.036 265.532 452.044 266.608C451.206 267.518 449.279 270.645 447.762 273.556C446.198 276.559 445.622 278.134 446.431 277.196C447.215 276.286 449.142 273.159 450.713 270.247ZM478.79 235.273C480.119 234.054 481.585 231.86 482.049 230.399C483.162 226.887 483.068 220.45 481.866 217.97C480.955 216.09 480.901 216.274 480.847 221.457C480.787 227.137 478.749 233.546 476.131 236.28C474.096 238.404 476.279 237.578 478.79 235.273ZM496.951 213.123C493.719 206.267 490.077 200.366 488.517 199.455C488.155 199.243 489.105 201.084 490.627 203.546C492.15 206.008 493.395 208.264 493.395 208.56C493.395 209.636 499.969 221.833 500.198 221.182C500.329 220.813 498.867 217.186 496.951 213.123ZM549.958 180.415C545.192 175.593 538.853 168.744 535.87 165.195C532.888 161.647 530.296 158.743 530.11 158.743C528.835 158.743 536.248 168.634 542.705 175.547C546.411 179.515 557.485 189.183 558.324 189.183C558.488 189.183 554.723 185.238 549.958 180.415ZM426.918 178.748C424.826 177.029 421.915 173.835 420.447 171.65C417.264 166.91 416.892 167.935 419.881 173.209C421.485 176.04 422.966 177.539 426.009 179.415C428.215 180.776 430.178 181.886 430.371 181.881C430.564 181.868 429.01 180.466 426.918 178.748ZM477.997 172.143C473.109 163.959 463.216 155.203 453.757 150.691C450.48 149.128 448.124 147.747 448.519 147.622C449.56 147.294 460.279 150.007 462.786 151.232C465.818 152.714 472.552 154.838 472.969 154.443C473.162 154.261 473.025 154.111 472.663 154.111C472.301 154.111 470.279 153.029 468.169 151.708C459.561 146.314 455.409 144.817 446.255 143.807C441.563 143.289 435.761 142.456 433.361 141.955C430.962 141.455 429.144 141.268 429.321 141.538C429.498 141.81 432.407 143.15 435.785 144.518C443.813 147.769 454.539 153.29 459.986 156.975C464.553 160.065 474.143 168.928 476.786 172.503C478.941 175.416 479.799 175.161 477.997 172.143ZM442.905 157.957C441.167 154.887 435.445 149.901 430.079 146.781C426.998 144.989 424.202 143.523 423.866 143.523C423.529 143.523 426.667 146.033 430.839 149.102C435.011 152.17 439.51 155.744 440.837 157.043C443.634 159.78 444.039 159.96 442.905 157.957ZM575.677 132.962C561.947 127.619 562.157 127.687 565.972 129.827C569.094 131.578 574.322 133.488 576.027 133.5C576.67 133.512 576.534 133.296 575.677 132.962ZM406.737 126.058C408.406 124.861 408.276 123.292 406.406 122.054C404.261 120.634 401.856 120.764 400.96 122.347C399.204 125.448 403.627 128.289 406.737 126.058ZM594.719 125.919C593.637 125.365 592.062 125.039 591.217 125.194C589.95 125.426 590.018 125.491 591.608 125.566C592.667 125.615 593.533 125.954 593.533 126.318C593.533 126.682 594.242 126.968 595.109 126.953C596.58 126.928 596.555 126.86 594.719 125.919ZM588.462 123.39C588.863 123.011 570.711 121.535 569.324 121.833C568.581 121.993 569.864 122.343 572.175 122.611C574.486 122.879 578.11 123.335 580.228 123.624C583.652 124.092 587.845 123.972 588.462 123.39ZM532.755 107.708C534.763 106.589 541.099 103.766 546.835 101.434C552.571 99.1025 559.832 95.6013 562.969 93.6538C570.601 88.9165 579.404 82.445 580.802 80.5442L581.936 79.0027L580.207 80.1481C573.445 84.6264 557.818 93.1334 548.713 97.2928C537.352 102.483 529.239 107.135 526.297 110.146L524.557 111.927L526.83 110.835C528.081 110.234 530.747 108.827 532.755 107.708ZM615.242 69.0299C615.242 68.848 614.611 69.0173 613.841 69.4074C613.071 69.7969 612.441 70.2646 612.441 70.4468C612.441 70.6287 613.071 70.4593 613.841 70.0691C614.611 69.6796 615.242 69.2118 615.242 69.0299ZM135.295 347.258C135.055 346.121 134.858 344.068 134.858 342.697V340.202L137.659 340.874C141.061 341.691 141.319 343.192 138.684 346.857C136.52 349.866 135.864 349.943 135.295 347.258ZM356.843 299.953C354.598 298.431 354.008 298.331 349.84 298.764C343.62 299.41 308.394 299.144 303.579 298.414C298.567 297.654 289.617 295.089 289.617 294.412C289.617 292.598 299.798 290.378 318.652 288.084C323.506 287.493 327.076 286.009 328.133 284.142C328.729 283.089 328.901 281.186 328.643 278.497C327.525 266.841 312.968 258.005 294.882 258.005C292.355 258.005 290.878 257.503 288.014 255.672C280.862 251.1 269.89 249.307 257.31 250.654C253.599 251.051 245.123 252.707 238.474 254.333C231.825 255.96 223.832 257.473 220.712 257.696L215.038 258.101L209.786 255.128C203.665 251.663 193.995 243.636 188.519 237.475C186.409 235.1 182.29 229.774 179.367 225.639L174.051 218.121L175.912 215.067C180.825 207.008 191.449 194.749 204.865 181.66C216.918 169.902 236.771 154.841 240.293 154.785C240.703 154.772 241.559 155.803 242.194 157.062C243.582 159.812 249.661 163.36 253.001 163.369C255.046 163.382 255.321 163.626 256.038 166.141C257.408 170.95 263.472 174.949 271.88 176.588C275.475 177.289 276.272 177.694 276.617 178.994C277.523 182.405 281.068 185.112 286.915 186.857C289.982 187.773 292.868 188.523 293.33 188.523C293.791 188.523 294.799 189.641 295.569 191.005C297.839 195.024 307.064 198.309 314.259 197.661C316.73 197.438 316.977 197.577 317.676 199.578C318.09 200.764 319.28 202.307 320.319 203.007C323.128 204.897 329.992 206.594 333.189 206.189C335.702 205.87 336.16 206.064 338.373 208.378C341.305 211.446 345.712 213.006 351.439 213.006C354.828 213.006 355.966 213.306 357.639 214.635C360.241 216.705 363.776 217.63 369.097 217.635C371.594 217.635 374.794 218.176 376.983 218.962C380.889 220.365 386.569 220.677 390.217 219.688C391.538 219.33 394.201 219.337 396.865 219.706C405.773 220.937 409.017 221.034 412.164 220.164C413.897 219.685 417.165 219.384 419.425 219.494L423.535 219.695L423.1 222.268C422.447 226.126 421.364 228.41 420.382 228.001C411.601 224.341 410.293 224.027 402.621 223.733C396.552 223.5 394.048 223.679 391.298 224.543C386.782 225.96 381.803 230.104 379.415 234.432C373.018 246.028 382.712 261.976 396.158 261.976C399.645 261.976 400.557 260.405 400.062 255.249C399.742 251.915 399.855 251.388 400.886 251.388C401.543 251.388 402.379 251.147 402.745 250.852C403.111 250.557 404.275 249.969 405.333 249.544L407.255 248.773L407.171 252.267C407.078 256.095 408.224 258.771 411.013 261.233C414.295 264.13 415.702 262.126 414.323 256.517C413.988 255.152 413.954 254.035 414.246 254.035C415.386 254.035 419.868 261.665 419.868 263.606C419.868 265.034 412.912 274.49 410.984 275.684C409.498 276.604 409.152 276.623 408.614 275.82C408.268 275.303 407.98 274.127 407.974 273.207C407.959 271 406.12 268.594 404.446 268.594C402.678 268.594 398.997 271.712 394.592 276.943C392.621 279.284 389.545 282.141 387.756 283.291C385.968 284.441 382.722 286.891 380.544 288.734C377.339 291.447 360.565 301.771 359.56 301.648C359.414 301.631 358.191 300.868 356.844 299.954L356.843 299.953ZM427.168 284.256C426.908 283.615 426.921 281.689 427.197 279.977C427.919 275.511 427.936 273.848 427.286 271.306C426.779 269.317 426.855 269.108 427.948 269.504C429.713 270.144 436.28 268.188 438.545 266.346C439.602 265.487 440.952 263.334 441.546 261.56C442.386 259.053 442.99 258.287 444.267 258.116C445.698 257.925 445.842 258.094 445.392 259.44C445.109 260.289 443.649 262.304 442.149 263.918C440.648 265.532 437.653 269.701 435.492 273.182C428.375 284.651 427.696 285.555 427.168 284.256ZM316.89 278.19C312.901 275.525 306.511 274.34 295.777 274.276L286.182 274.219L288.425 272.586C289.658 271.688 291.677 269.933 292.912 268.685L295.156 266.415L300.7 266.774C309.773 267.362 316.583 270.928 318.717 276.207C319.384 277.859 319.789 279.345 319.617 279.508C319.444 279.671 318.217 279.078 316.89 278.191V278.19ZM437.749 237.088C435.451 236.563 432.821 235.669 431.904 235.101C430.294 234.104 430.254 233.881 430.752 228.666C431.036 225.694 431.244 219.69 431.215 215.322L431.163 207.381L435.001 211.25C441.879 218.183 447.879 226.221 447.872 228.493C447.858 232.116 443.746 238.894 442.044 238.098C441.979 238.067 440.046 237.613 437.749 237.088ZM398.807 211.496C394.521 209.39 389.029 201.536 382.635 188.373C379.855 182.651 377.48 178.063 377.357 178.18C376.603 178.893 381.478 191.657 385.651 199.896C388.359 205.243 390.462 210.156 390.325 210.815C390.11 211.842 389.337 212.014 384.952 212.014C380.254 212.014 379.694 211.865 378.203 210.227C375.665 207.438 373.782 201.84 371.161 189.289C367.886 173.61 367.086 173.059 369.087 187.86C369.653 192.046 370.436 197.257 370.828 199.441C371.22 201.624 371.542 204.988 371.544 206.915L371.557 210.419L368.932 209.975C365.539 209.4 361.787 207.946 360.204 206.592C358.547 205.175 358.576 200.748 360.341 185.911C361.096 179.562 361.566 174.227 361.384 174.055C360.631 173.344 360.179 174.866 359.221 181.348C357.895 190.312 355.628 200.738 354.402 203.511C353.785 204.906 352.936 205.727 352.11 205.727C350.13 205.727 344.436 203.762 343.575 202.782C342.585 201.654 345.857 192.296 350.875 181.904C352.897 177.719 354.773 173.55 355.045 172.64L355.539 170.986L354.124 172.64C353.345 173.55 350.154 178.984 347.033 184.715C340.687 196.365 338.707 198.448 333.977 198.448C332.445 198.448 329.712 197.972 327.905 197.39L324.618 196.332L330.231 190.728C335.315 185.653 336.651 183.889 335.411 183.889C335.173 183.889 333.85 184.826 332.47 185.97C328.153 189.553 324.306 190.832 317.987 190.787C312.589 190.749 303.631 188.913 303.631 187.845C303.631 187.569 306.231 186.685 309.408 185.881C320.26 183.134 341.095 175.038 344.684 172.173C346.608 170.638 348.761 167.421 348.212 166.902C347.977 166.68 346.47 167.621 344.863 168.993C341.724 171.674 329.225 177.62 321.894 179.921C315.341 181.978 306.237 182.842 299.269 182.067C293.454 181.42 284.797 178.716 285.434 177.745C285.621 177.46 288.453 177.112 291.727 176.972C299.267 176.65 309.939 174.558 321.138 171.207C330.058 168.537 338.645 164.976 338.645 163.946C338.645 162.949 336.815 163.326 333.656 164.975C329.678 167.051 318.438 170.31 308.808 172.179C302.523 173.399 299.947 173.584 294.178 173.231C286.575 172.766 272.833 169.934 268.128 167.864C264.995 166.485 262.046 163.954 264.766 164.978C266.505 165.633 287.77 166.6 293.477 166.284C307.263 165.521 324.639 162.218 324.639 160.361C324.639 160.121 324.149 160.103 323.549 160.321C322.949 160.538 319.089 161.387 314.971 162.207C304.951 164.203 280.91 164.35 273.352 162.462C263.981 160.122 248.11 153.351 241.833 149.016C240.003 147.753 238.506 146.663 238.506 146.595C238.506 146.525 242.524 147.713 247.435 149.233C252.345 150.752 259.357 152.601 263.016 153.341C276.097 155.986 296.672 156.874 305.732 155.187C310.07 154.379 309.657 154.34 296.979 154.366C282.568 154.396 272.166 153.408 265.498 151.378C263.17 150.669 258.587 149.34 255.313 148.425C247.211 146.16 227.697 135.443 225.902 132.274C225.306 131.222 226.421 131.528 231.848 133.909C235.523 135.52 242.226 137.931 246.746 139.265C259.101 142.914 283.598 148.13 289.976 148.471C296.032 148.795 295.255 148.52 284.724 146.616C281.835 146.093 274.587 144.47 268.617 143.009C247.934 137.946 238.261 134.164 231.279 128.409C225.457 123.611 218.16 116.826 217.379 115.484C216.44 113.871 217.03 114.21 224.151 119.371C227.232 121.605 231.329 124.573 233.254 125.968C237.377 128.955 245.535 132.751 249.01 133.3C250.986 133.612 250.677 133.37 247.418 132.055C238.431 128.428 221 113.542 221 109.496C221 109.121 223.284 110.916 226.077 113.485C233.76 120.554 238.171 123.765 245.859 127.883C249.711 129.946 253.64 132.15 254.591 132.781C255.541 133.412 254.006 131.397 251.178 128.303C242.772 119.107 236.641 109.742 243.215 116.142C247.111 119.934 252.216 123.792 261.965 130.312C271.134 136.444 275.161 138.589 281.331 140.626C286.397 142.298 301.813 146.165 303.429 146.168C303.896 146.168 302.95 144.974 301.328 143.512C298.509 140.972 298.471 140.886 300.457 141.565C301.6 141.956 302.86 142.527 303.258 142.834C304.565 143.841 312.944 146.832 314.431 146.822C315.231 146.809 317.094 146.414 318.571 145.928C320.436 145.315 322.149 145.218 324.174 145.611C329.327 146.612 350.676 148.895 357.902 149.217C363.107 149.45 367.781 149.122 376.109 147.942C382.271 147.069 387.845 146.536 388.494 146.759C389.697 147.17 396.499 156.326 398.819 160.657C399.523 161.97 401.583 166.618 403.396 170.986C408.778 183.948 412.531 190.362 418.971 197.597C421.435 200.366 422.171 201.804 422.697 204.876C423.057 206.982 423.531 209.482 423.749 210.431C424.143 212.146 424.123 212.155 420.435 211.871C418.394 211.715 415.846 211.269 414.771 210.882C411.246 209.61 393.811 188.669 391.484 182.911C390.348 180.101 389.026 178.903 389.095 180.746C389.259 185.168 399.265 198.834 408.93 207.836C413.475 212.07 413.493 212.035 406.519 212.628C402.578 212.963 401.469 212.8 398.816 211.496L398.807 211.496ZM352.437 153.544C352.961 153.267 349.204 152.697 344.087 152.279C335.834 151.603 330.683 150.827 321.654 148.9C315.63 147.614 321.174 150.002 329.078 152.098C337.824 154.417 349.427 155.136 352.437 153.544ZM298.02 147.754C298.02 147.61 297.547 147.493 296.97 147.493C296.392 147.493 295.919 147.782 295.919 148.135C295.919 148.487 296.392 148.604 296.97 148.395C297.547 148.185 298.02 147.896 298.02 147.754ZM210.502 164.318C215.59 159.454 227.809 149.978 229.801 149.35C230.155 149.24 230.452 149.446 230.461 149.81C230.474 150.174 227.161 152.753 223.108 155.541C219.055 158.33 213.541 162.723 210.856 165.302C208.17 167.882 205.656 169.993 205.269 169.993C204.882 169.993 207.237 167.439 210.502 164.318ZM223.441 157.864C227.095 154.857 233.39 150.828 233.812 151.227C234.309 151.697 231.411 153.986 227.643 156.099C221.203 159.711 221.193 159.715 223.441 157.864ZM341.437 140.848C331.335 140.01 320.546 138.985 309.321 137.797C296.722 136.464 296.968 135.72 310.275 134.905C318.262 134.415 330.378 133.456 342.339 132.365C346.371 131.997 347.981 132.082 348.515 132.69C348.911 133.142 351.499 133.995 354.265 134.586C361.431 136.117 372.949 139.561 372.949 140.173C372.949 141.499 354.126 141.902 341.437 140.848ZM280.518 131.115C280.541 128.753 323.506 107.781 334.434 104.798C335.397 104.535 337.926 103.636 340.055 102.8C345.4 100.699 381.044 89.9272 392.557 86.9332C407.209 83.1226 414.81 81.4744 427.453 79.3669C433.872 78.2968 439.819 77.2759 440.669 77.0978C446.318 75.9135 467.162 75.2382 488.304 75.5549C513.989 75.9396 520.689 76.5487 538.696 80.1352L549.334 82.2541L546.703 83.7368C545.256 84.5522 543.305 85.3636 542.367 85.54C541.43 85.7161 539.669 86.0614 538.454 86.3067C537.081 86.5841 533.861 86.2237 529.942 85.3542C517.31 82.5517 499.906 81.2498 476.939 81.3889C446.583 81.5731 434.822 82.51 410.063 86.7163C403.708 87.796 396.618 88.9753 394.307 89.3369C389.612 90.0714 380.42 92.5699 380.865 92.9906C381.023 93.1402 383.955 92.8339 387.38 92.3101C390.805 91.7863 398.018 90.7104 403.41 89.9195C408.803 89.1285 414.947 88.2043 417.066 87.8658C426.992 86.2796 458.374 85.1688 483.942 85.4986C509.51 85.8284 516.821 86.3672 528.503 88.7828L532.449 89.5988L530.553 91.7455C528.898 93.6192 528.23 93.892 525.296 93.892C522.47 93.892 513.583 92.868 504.95 91.5474C502.746 91.2103 498.233 90.7571 492.345 90.2818C490.419 90.1264 487.268 89.8063 485.342 89.5704C476.821 88.5267 450.708 89.0947 428.389 90.8093C407.096 92.4451 397.439 93.7223 379.952 97.2161C361.478 100.907 360.001 101.321 333.034 110.371C328.604 111.858 316.152 117.245 305.361 122.343C290.648 129.293 285.087 131.612 283.127 131.612C281.69 131.612 280.516 131.388 280.518 131.115ZM311.01 129.662C312.192 128.549 324.748 123.895 333.384 121.369C338.005 120.017 346.632 117.438 352.554 115.639C363.23 112.394 367.12 111.803 360.713 114.399C358.881 115.141 355.277 117.083 352.704 118.714C350.131 120.345 347.095 121.79 345.957 121.924C344.819 122.058 341.209 122.938 337.935 123.879C332.753 125.368 311.89 130.288 310.755 130.288C310.53 130.288 310.645 130.006 311.01 129.662ZM277.278 127.067C279.761 124.475 292.814 117.418 305.145 112.001C312.203 108.901 320.026 105.448 322.53 104.328C329.964 101.003 334.467 99.4122 355.792 92.5797C376.239 86.0283 384.072 83.8458 406.562 78.4336C433.875 71.8603 438.428 71.3735 482.191 70.3477C504.383 69.8276 525.893 70.8272 540.005 73.0345C549.338 74.4942 559.555 76.7821 560.429 77.6083C560.605 77.7746 559.224 78.133 557.359 78.4047C554.962 78.7539 551.301 78.4622 544.865 77.4107C516.943 72.8471 510.884 72.4376 478.69 72.9393C464.246 73.1642 451.327 73.5041 449.978 73.6945C448.63 73.885 443.904 74.3463 439.474 74.7192C435.045 75.0922 430.476 75.6914 429.32 76.0508C428.165 76.4103 423.281 77.4325 418.466 78.3222C413.652 79.2121 407.822 80.5064 405.511 81.198C403.201 81.8897 399.577 82.8246 397.458 83.2756C395.34 83.7265 390.613 84.9495 386.954 85.9931C383.295 87.0367 377.15 88.7722 373.299 89.8497C365.842 91.936 337.129 101.237 329.532 104.026C320.644 107.291 305.38 114.209 288.059 122.825C282.004 125.838 276.834 128.303 276.572 128.303C276.309 128.303 276.628 127.747 277.278 127.067ZM272.749 126.426C273.968 124.274 278.959 120.455 283.189 118.436C285.454 117.356 288.221 115.751 289.337 114.869C290.454 113.988 293.258 112.373 295.569 111.28C297.88 110.188 300.716 108.818 301.872 108.237C306.935 105.689 314.624 102.296 318.585 100.862C320.947 100.007 326.188 98.0566 330.232 96.5283C337.122 93.9243 344.554 91.3897 364.896 84.7056C373.627 81.8366 393.051 76.4993 409.363 72.4866C425.426 68.535 450.957 65.0348 465.296 64.8184C469.333 64.7581 472.826 64.5972 473.057 64.4621C474.29 63.742 512.497 63.3844 517.554 64.0456C520.636 64.4484 524.574 64.9046 526.308 65.0591C544.808 66.7084 568.617 72.208 566.181 74.2689C566.012 74.4126 562.091 73.6797 557.47 72.6402C547.335 70.3609 533.151 68.423 518.955 67.3779C505.108 66.3586 460.134 67.0192 447.527 68.4271C435.355 69.7865 419.549 72.4492 411.814 74.4427C408.347 75.3362 402.491 76.7931 398.8 77.6804C384.968 81.0056 366.865 85.8892 363.145 87.2988C361.027 88.1014 353.936 90.4662 347.389 92.5537C333.779 96.893 312.001 105.116 302.222 109.608C292.637 114.011 278.652 122.27 275.888 125.159C273.35 127.813 271.553 128.538 272.749 126.426ZM465.384 121.626C459.354 120.892 450.386 119.162 448.41 118.351C447.307 117.898 448.728 117.825 453.102 118.11C462.04 118.692 473.276 120.567 473.617 121.533C473.942 122.455 472.348 122.472 465.384 121.626ZM491.294 111.716C488.199 110.997 469.466 107.833 465.734 107.4C464.194 107.221 452.377 106.904 439.474 106.696C414.059 106.286 401.792 106.914 393.607 109.042C388.687 110.321 371.027 111.325 372.152 110.262C372.823 109.628 382.328 107.769 398.159 105.175C407.403 103.66 414.025 103.028 425.119 102.602C440.367 102.017 461.235 102.123 468.536 102.822C478.223 103.749 501.419 107.823 503.469 108.958C503.81 109.147 502.865 110.002 501.368 110.858C498.537 112.477 495.634 112.724 491.294 111.716Z" fill="#2EADDC"/>
</svg>
