<?xml version="1.0" encoding="UTF-8" standalone="no"?>
<!-- Created with Inkscape (http://www.inkscape.org/) -->

<svg
   width="209mm"
   height="66.290001mm"
   viewBox="0 0 209 66.290001"
   version="1.1"
   id="svg1"
   inkscape:version="1.4 (e7c3feb1, 2024-10-09)"
   sodipodi:docname="Logo 3.svg"
   xmlns:inkscape="http://www.inkscape.org/namespaces/inkscape"
   xmlns:sodipodi="http://sodipodi.sourceforge.net/DTD/sodipodi-0.dtd"
   xmlns="http://www.w3.org/2000/svg"
   xmlns:svg="http://www.w3.org/2000/svg">
  <sodipodi:namedview
     id="namedview1"
     pagecolor="#ffffff"
     bordercolor="#000000"
     borderopacity="0.25"
     inkscape:showpageshadow="2"
     inkscape:pageopacity="0.0"
     inkscape:pagecheckerboard="0"
     inkscape:deskcolor="#d1d1d1"
     inkscape:document-units="mm"
     showguides="false"
     inkscape:zoom="0.38956126"
     inkscape:cx="-2.5669904"
     inkscape:cy="533.934"
     inkscape:window-width="1712"
     inkscape:window-height="1041"
     inkscape:window-x="0"
     inkscape:window-y="38"
     inkscape:window-maximized="0"
     inkscape:current-layer="layer1"
     inkscape:export-bgcolor="#00000000" />
  <defs
     id="defs1" />
  <g
     inkscape:label="Layer 1"
     inkscape:groupmode="layer"
     id="layer1">
    <path
       style="fill:#ffffff;stroke-width:0.224834;fill-opacity:1"
       d="m 88.950859,65.858971 c -1.470702,-0.508099 -2.479396,-1.509518 -3.188863,-3.165893 -0.482421,-1.126361 -0.537497,-1.627513 -0.617744,-5.620936 -0.08489,-4.226468 -0.07046,-4.406476 0.399608,-5.002486 0.625328,-0.792845 1.9586,-0.86717 2.612292,-0.145592 0.383496,0.423325 0.436083,0.921163 0.502506,4.75689 0.08251,4.761339 0.18581,5.140365 1.557459,5.713483 1.004921,0.419881 2.109864,0.187533 2.86708,-0.602894 l 0.608241,-0.634883 0.113278,-4.346823 c 0.130426,-5.005352 0.235851,-5.358492 1.599975,-5.358492 0.557064,0 1.028768,0.164901 1.363426,0.476679 0.506377,0.471763 0.510647,0.523396 0.41382,5.002546 -0.106639,4.930389 -0.250959,5.692006 -1.357235,7.162002 -1.375788,1.828233 -4.426134,2.612092 -6.873843,1.766399 z m 10.061039,-0.235851 -0.667264,-0.667268 0.06628,-6.279405 c 0.06121,-5.80648 0.09853,-6.314967 0.494522,-6.752255 0.642803,-0.709653 1.987144,-0.647631 2.590694,0.11952 0.44506,0.565861 0.46583,0.860541 0.4629,6.576384 0,3.291292 -0.0652,6.21573 -0.14099,6.498945 -0.14108,0.526521 -1.11713,1.171356 -1.77317,1.171356 -0.201113,0 -0.66601,-0.300304 -1.032982,-0.667277 z m 9.539702,0.398722 c -0.27101,-0.130993 -0.5632,-0.402355 -0.64933,-0.603086 -0.0862,-0.200728 -0.21852,-2.590803 -0.29417,-5.311257 l -0.13759,-4.946393 -1.64857,-0.112442 c -1.28865,-0.08788 -1.71809,-0.207677 -1.96728,-0.548835 -0.47559,-0.651203 -0.40444,-2.063447 0.13094,-2.598836 0.42352,-0.423513 0.74944,-0.449648 5.60812,-0.449648 5.07568,0 5.16403,0.008 5.50842,0.49969 0.50166,0.716222 0.44961,2.098698 -0.0997,2.647981 -0.36973,0.36971 -0.74944,0.449648 -2.13592,0.449648 h -1.68628 v 5.028173 5.028052 l -0.59273,0.592753 c -0.62414,0.624175 -1.21917,0.718901 -2.03595,0.3242 z M 45.476108,47.167313 C 44.767022,47.059777 43.208667,46.569016 42.013207,46.07672 l -2.17367,-0.894958 -0.80891,0.404704 c -1.531005,0.766016 -4.099827,1.400769 -5.731997,1.416514 -2.995209,0.02866 -5.34424,-1.596014 -6.108603,-4.225255 -0.480501,-1.652752 -0.545839,-4.159598 -0.121807,-4.672992 0.172166,-0.208512 0.352055,-0.340201 0.399667,-0.292521 0.04777,0.04777 0.286599,1.118321 0.53106,2.379238 0.496504,2.561544 0.832556,3.359167 1.703877,4.044538 1.355136,1.06606 4.04648,1.16639 6.400098,0.238727 0.670655,-0.264284 1.247097,-0.508228 1.281005,-0.542076 0.03384,-0.03384 -0.811458,-0.910652 -1.878546,-1.948457 -4.298902,-4.181086 -5.808359,-7.340807 -6.292433,-13.171958 -0.172554,-2.078943 0.217181,-4.752809 0.721011,-4.946144 0.321521,-0.123341 2.91948,1.454002 3.51115,2.131849 0.231074,0.264734 0.373862,1.119474 0.458646,2.745126 0.08022,1.539862 0.28614,2.824237 0.592047,3.693579 0.672631,1.911354 2.254824,4.333295 3.783282,5.791121 1.240077,1.18289 3.636978,2.890012 4.035003,2.873949 0.314128,-0.01274 2.412268,-1.626358 4.229355,-3.252847 5.106289,-4.570621 6.265661,-5.682501 7.912103,-7.588053 0.988352,-1.143887 2.471426,-2.990353 3.295702,-4.103318 1.880264,-2.538604 4.051575,-6.68182 3.844276,-7.335135 -0.08091,-0.25484 -0.974327,-1.299989 -1.985371,-2.322497 -1.487084,-1.503915 -2.202292,-2.03362 -3.744135,-2.773112 -2.702182,-1.29585 -3.56368,-1.488677 -6.62748,-1.483512 -4.465077,0.008 -7.00592,0.942133 -10.525043,3.871416 -1.213363,1.010089 -2.281524,1.836455 -2.373635,1.836455 -0.219859,0 -2.052819,-3.444261 -2.052819,-3.857385 0,-0.349826 1.597049,-1.949353 3.076931,-3.081694 1.240017,-0.948832 4.783036,-2.6156065 6.602808,-3.1061793 1.075873,-0.2900323 2.347888,-0.3924722 4.934491,-0.3974385 2.966398,-0.00597 3.752557,0.069567 5.283561,0.5062478 2.863828,0.8168816 5.592901,2.281972 7.805523,4.190391 l 1.959814,1.690362 0.218065,-0.838807 C 64.924178,10.148861 65.130898,5.3091169 64.55784,3.9374697 63.866657,2.2832544 62.019296,1.4276283 59.473417,1.5823281 c -1.170151,0.07106 -2.07952,0.3540361 -4.501602,1.4005788 -1.669393,0.7213288 -3.824202,1.8170163 -4.788329,2.4350195 -1.673921,1.0728069 -1.767563,1.1044855 -2.072574,0.7016229 -0.175749,-0.2320895 -0.322736,-0.5349306 -0.326626,-0.6730696 -0.008,-0.3021443 1.189906,-1.1133431 3.988974,-2.6999319 3.792643,-2.14963486 6.400356,-2.94005303 8.931825,-2.70732653 2.506865,0.23056683 3.939829,1.23376693 5.031197,3.52248633 0.547491,1.1482759 0.589121,1.4533563 0.583,4.2718508 -0.006,2.6219156 -0.09296,3.3503096 -0.64171,5.3494456 l -0.63521,2.314158 0.542455,0.833512 c 1.184751,1.82046 1.395681,3.048674 0.742178,4.322468 -0.610598,1.190285 -1.682907,2.693941 -1.921059,2.693941 -0.116651,0 -0.529137,-0.561773 -0.916633,-1.248427 l -0.704569,-1.248357 -1.390318,2.436353 c -1.400719,2.454645 -3.076232,4.981008 -4.153378,6.262447 -5.204638,6.192073 -7.840586,8.926619 -10.995281,11.406386 -0.780357,0.613464 -1.336844,1.187228 -1.236574,1.275128 0.100269,0.08788 0.637628,0.335734 1.194056,0.550805 1.344041,0.519584 1.553766,0.716482 2.16953,2.037321 0.606269,1.300439 0.627747,1.471082 0.247456,1.966432 -0.369144,0.480819 -1.548601,0.624174 -3.144117,0.382142 z M 0.74872764,45.827105 0.0708112,45.149119 0.16167645,36.777453 c 0.0496624,-4.60434 0.17242501,-8.551484 0.27205831,-8.771332 0.39374608,-0.868773 0.92645724,-0.931623 8.67193834,-1.022776 7.3323479,-0.08629 7.5590929,-0.10243 8.5562419,-0.607544 1.279091,-0.64795 2.693184,-2.086646 3.389522,-3.448599 0.722225,-1.412562 0.74218,-4.346116 0.04021,-5.902937 C 20.448793,15.598636 19.13675,14.20788 17.776191,13.50988 16.763556,12.990306 16.265081,12.907124 13.265213,12.757002 11.410327,12.664146 7.9507389,12.580755 5.5771655,12.571639 1.3508069,12.555716 1.2486259,12.543573 0.63081182,12.012414 0.08235596,11.540583 0,11.309 0,10.237338 0,9.3409065 0.11678126,8.8759013 0.42830076,8.5316185 0.84760456,8.068395 1.0164667,8.0583828 8.4188791,8.0583828 c 8.5323959,0 8.9970329,0.062501 11.9620859,1.6048813 2.227981,1.1591149 3.678292,2.7089189 4.964905,5.3053269 l 0.959728,1.936862 v 2.844311 2.844311 l -0.987843,1.993462 c -1.122917,2.266219 -3.440141,4.796273 -5.195084,5.672371 -2.794539,1.395035 -3.291799,1.478606 -9.386828,1.578039 -3.1223704,0.05096 -5.6885223,0.159487 -5.7024756,0.241335 -0.014033,0.08181 -0.08987,3.117077 -0.168673,6.744988 L 4.7215294,45.420541 4.090658,45.962746 C 3.1351297,46.784147 1.6454969,46.723655 0.74886697,45.827105 Z M 73.27319,46.183937 C 72.889835,46.017056 72.485121,45.69222 72.373884,45.462041 72.12395,44.944886 71.98377,11.615095 72.223702,9.7535223 72.377774,8.5583308 72.481489,8.35575 73.183371,7.8793295 74.189706,7.1961881 75.4598,7.3098443 76.309125,8.1590312 l 0.583956,0.5838963 0.112452,16.3516235 0.112382,16.351625 1.124181,0.148977 c 0.618322,0.08191 3.41931,0.157765 6.224559,0.168603 2.805119,0.01085 5.359795,0.118364 5.676918,0.238907 0.669188,0.254463 1.474087,1.459547 1.475361,2.208911 0,0.862135 -0.615585,1.779537 -1.374902,2.0442 -1.110228,0.387058 -16.062169,0.323762 -16.970842,-0.07186 z m 22.96349,-0.376726 c -0.911798,-0.80062 -0.981534,-1.303176 -0.376409,-2.712293 0.230049,-0.535838 3.629527,-7.428578 7.554439,-15.317264 l 7.13614,-14.343114 -0.15647,-1.767234 c -0.1425,-1.610167 -0.11453,-1.8091842 0.31474,-2.2384304 0.62481,-0.6248204 1.77423,-0.6079214 2.74248,0.040108 0.64365,0.4309089 1.37406,1.7319244 4.63859,8.2626674 4.87213,9.746745 11.35133,23.113819 11.96189,24.678284 0.97877,2.507752 0.39447,3.870083 -1.65994,3.870083 -0.93822,0 -1.17854,-0.101166 -1.79623,-0.756132 -0.45714,-0.48477 -2.8877,-5.245283 -6.77157,-13.262923 -3.33214,-6.878787 -6.22366,-12.727474 -6.42552,-12.997043 -0.35673,-0.476352 -0.42942,-0.360595 -2.57501,4.100957 -1.21437,2.525089 -4.21425,8.611985 -6.66642,13.526373 -3.73336,7.481872 -4.565163,8.990434 -5.114379,9.274405 -1.039156,0.537359 -1.913085,0.425683 -2.806331,-0.358624 z m 41.08302,-0.03314 -0.70407,-0.730752 -0.0708,-17.924888 -0.0708,-17.9248864 0.56209,-0.5594235 c 0.54659,-0.5439872 0.67664,-0.5631753 4.7215,-0.6959502 2.28768,-0.075041 6.15424,-0.047174 8.59234,0.061804 l 4.43292,0.1981121 2.09334,1.0392178 c 2.29612,1.1398662 4.25671,2.9266682 5.44345,4.9611832 0.79044,1.354996 1.4717,3.904876 1.4717,5.508225 0,1.72019 -0.796,4.90127 -1.5474,6.183923 -1.51522,2.586525 -4.77117,5.097073 -7.50216,5.784683 -0.58739,0.147823 -1.06797,0.371244 -1.06797,0.496375 0,0.125122 0.63232,0.961509 1.4052,1.858578 0.77285,0.897067 1.8673,2.224395 2.43212,2.949676 0.56478,0.725211 1.7912,2.279732 2.72534,3.454472 2.92366,3.676738 3.13942,4.27217 1.97129,5.440399 -0.63524,0.635211 -0.77462,0.676773 -1.94559,0.579627 -1.17019,-0.09704 -1.33602,-0.185174 -2.29482,-1.220121 -0.56839,-0.613596 -2.31261,-2.728615 -3.87605,-4.700212 -1.56339,-1.971537 -3.73864,-4.656739 -4.83389,-5.96719 l -1.99139,-2.382549 -2.76824,-0.170256 c -1.52253,-0.09365 -2.80496,-0.133481 -2.84989,-0.08858 -0.0449,0.04459 -0.14827,2.91366 -0.22973,6.374949 -0.0814,3.461359 -0.24888,6.622982 -0.37202,7.025913 -0.27425,0.897129 -0.76151,1.178621 -2.0401,1.178621 -0.81406,0 -1.10306,-0.125261 -1.68648,-0.730693 z m 17.81564,-19.250573 c 0.97262,-0.444294 2.55635,-2.033112 3.12755,-3.137728 0.54004,-1.044314 0.85015,-3.677255 0.57682,-4.89699 -0.52802,-2.356157 -1.84448,-4.033132 -3.94519,-5.025683 l -1.44662,-0.68347 h -6.06993 -6.06991 v 7.082264 7.082254 l 6.46397,-0.006 c 5.77549,-0.006 6.55977,-0.04847 7.36331,-0.415741 z m 15.95541,19.767342 c -1.16258,-0.471266 -1.11081,0.353776 -1.19115,-18.987692 -0.0484,-11.644207 0.004,-18.2147304 0.14998,-18.592284 0.29705,-0.7716181 1.65033,-1.4121137 2.60529,-1.232931 0.39911,0.074842 1.02164,0.4450607 1.38335,0.8225445 l 0.65768,0.6864556 V 26.924835 c 0,19.315194 0.0316,18.787588 -1.15944,19.330242 -0.63186,0.287932 -1.78213,0.304762 -2.44571,0.03573 z m 11.15436,-0.368129 c -0.57066,-0.480183 -0.69178,-0.747713 -0.69178,-1.528377 0,-1.055789 0.79123,-2.446615 4.87472,-8.56921 2.59731,-3.894239 5.61933,-8.653476 5.80947,-9.149026 0.12321,-0.321074 -1.45771,-3.140146 -4.01059,-7.151413 -3.51296,-5.52003 -4.45805,-7.07072 -5.37423,-8.818259 -0.85151,-1.6241292 0.0995,-3.0979476 1.99898,-3.0979476 0.54414,0 1.23536,0.161149 1.536,0.3581764 0.51306,0.3361814 2.26743,2.9639582 5.84005,8.7475672 2.67363,4.32826 3.07036,4.893993 3.28303,4.681401 0.11212,-0.112183 0.99171,-1.464255 1.95466,-3.004754 6.29242,-10.0662968 6.65866,-10.5467978 8.16848,-10.7168641 1.25918,-0.1418314 1.7832,0.1127008 2.33277,1.1331783 0.40334,0.7489863 0.40449,0.820952 0.0283,1.8061178 -0.21554,0.56438 -1.52898,2.774954 -2.9188,4.912477 -1.38978,2.137582 -3.46935,5.391901 -4.62128,7.231928 l -2.0944,3.345464 0.36156,0.758171 c 0.36411,0.763517 4.01014,6.695077 7.44476,12.111452 2.85137,4.496616 3.17892,5.310173 2.58487,6.420271 -0.30087,0.562161 -1.37693,1.11195 -2.1743,1.110865 -1.34421,0 -1.85625,-0.626282 -6.00599,-7.325052 -5.12622,-8.275157 -4.91645,-7.95676 -5.24558,-7.960074 -0.15384,0 -0.82866,0.848242 -1.49968,1.888345 -2.65665,4.118107 -3.26212,5.061701 -4.84575,7.551857 -3.5271,5.546224 -3.79313,5.84575 -5.1917,5.84575 -0.58833,0 -1.06571,-0.180007 -1.5435,-0.582044 z"
       id="path15301"
       sodipodi:nodetypes="sssssssscssssssscssscsssssscssssssscccsssscsssssssssssssssssssssssssssssssscsssssssssssscsssscssssssssscssssssssssssssscccssssscssssssscccssscssssscsssssssssssssscccssscsssssssssssssscsssssscsssccccccccssssscssssssssssssssssssscssssscssss" />
  </g>
</svg>
