<svg width="1166" height="232" viewBox="0 0 1166 232" fill="none" xmlns="http://www.w3.org/2000/svg">
<path d="M495.4 159V197.46C495.4 198.34 495.593 199.193 495.98 200.02C496.367 200.833 496.873 201.56 497.5 202.2C498.14 202.827 498.867 203.333 499.68 203.72C500.507 204.107 501.36 204.3 502.24 204.3H536.88C537.76 204.3 538.607 204.107 539.42 203.72C540.247 203.333 540.973 202.827 541.6 202.2C542.24 201.56 542.753 200.833 543.14 200.02C543.527 199.193 543.72 198.34 543.72 197.46V159H555.4V196.48C555.4 199.04 554.913 201.427 553.94 203.64C552.98 205.84 551.627 207.787 549.88 209.48C549.04 210.293 548.127 211.04 547.14 211.72C546.153 212.4 545.107 212.987 544 213.48C542.907 213.96 541.76 214.333 540.56 214.6C539.373 214.867 538.147 215 536.88 215H502.24C500.973 215 499.74 214.867 498.54 214.6C497.353 214.333 496.207 213.96 495.1 213.48C494.007 212.987 492.967 212.4 491.98 211.72C490.993 211.04 490.08 210.293 489.24 209.48C487.493 207.787 486.133 205.84 485.16 203.64C484.2 201.427 483.72 199.04 483.72 196.48L483.66 159H495.4ZM576.883 159H588.583V215H576.883V159ZM608.646 169.7V159H680.326V169.7H650.346V215H638.646V169.7H608.646Z" fill="white"/>
<path d="M22.16 0.999992H122.04C125.8 0.999992 129.227 1.45333 132.32 2.36C135.44 3.26666 138.24 4.50666 140.72 6.08C143.227 7.65333 145.4 9.51999 147.24 11.68C149.107 13.84 150.653 16.1867 151.88 18.72C153.107 21.2267 154.027 23.8667 154.64 26.64C155.253 29.3867 155.547 32.16 155.52 34.96C155.52 37.8133 155.213 40.64 154.6 43.44C153.987 46.24 153.067 48.9067 151.84 51.44C150.613 53.9467 149.067 56.2667 147.2 58.4C145.36 60.5333 143.2 62.3867 140.72 63.96C138.24 65.5067 135.44 66.72 132.32 67.6C129.227 68.48 125.8 68.92 122.04 68.92H32.72V113H9.36L9.32 13.84C9.32 11.92 9.62667 10.1733 10.24 8.59999C10.8533 7.02666 11.72 5.67999 12.84 4.55999C13.9867 3.41333 15.3467 2.53333 16.92 1.91999C18.4933 1.30666 20.24 0.999992 22.16 0.999992ZM121.6 47.52C123.333 47.52 124.853 47.16 126.16 46.44C127.467 45.72 128.56 44.7733 129.44 43.6C130.32 42.4267 130.973 41.0933 131.4 39.6C131.853 38.08 132.08 36.5333 132.08 34.96C132.107 33.3867 131.907 31.8533 131.48 30.36C131.053 28.84 130.4 27.4933 129.52 26.32C128.667 25.1467 127.573 24.2 126.24 23.48C124.933 22.76 123.387 22.4 121.6 22.4H32.72V47.52H121.6ZM206.727 101.96C203.234 98.5733 200.514 94.68 198.567 90.28C196.647 85.8533 195.687 81.08 195.687 75.96V38.04C195.687 32.92 196.634 28.2 198.527 23.88C200.421 19.56 203.154 15.6133 206.727 12.04C210.301 8.46666 214.247 5.73333 218.567 3.84C222.914 1.94666 227.634 0.999992 232.727 0.999992H302.007C307.101 0.999992 311.807 1.94666 316.127 3.84C320.474 5.73333 324.434 8.46666 328.007 12.04C331.581 15.6133 334.314 19.56 336.207 23.88C338.101 28.2 339.047 32.92 339.047 38.04V75.96C339.047 81.08 338.074 85.8533 336.127 90.28C334.207 94.68 331.501 98.5733 328.007 101.96C326.327 103.587 324.501 105.08 322.527 106.44C320.554 107.8 318.461 108.973 316.247 109.96C314.061 110.92 311.767 111.667 309.367 112.2C306.994 112.733 304.541 113 302.007 113H232.727C230.194 113 227.727 112.733 225.327 112.2C222.954 111.667 220.661 110.92 218.447 109.96C216.261 108.973 214.181 107.8 212.207 106.44C210.234 105.08 208.407 103.587 206.727 101.96ZM219.047 77.92C219.047 79.68 219.434 81.3867 220.207 83.04C220.981 84.6667 221.994 86.12 223.247 87.4C224.527 88.6533 225.981 89.6667 227.607 90.44C229.261 91.2133 230.967 91.6 232.727 91.6H302.007C303.767 91.6 305.461 91.2133 307.087 90.44C308.741 89.6667 310.194 88.6533 311.447 87.4C312.727 86.12 313.754 84.6667 314.527 83.04C315.301 81.3867 315.687 79.68 315.687 77.92V36.08C315.687 34.1867 315.327 32.4133 314.607 30.76C313.914 29.08 312.941 27.6267 311.687 26.4C310.461 25.1467 309.007 24.1733 307.327 23.48C305.674 22.76 303.901 22.4 302.007 22.4H232.727C230.834 22.4 229.047 22.76 227.367 23.48C225.714 24.1733 224.261 25.1467 223.007 26.4C221.781 27.6267 220.807 29.08 220.087 30.76C219.394 32.4133 219.047 34.1867 219.047 36.08V77.92ZM405.415 91.6H525.335V113H394.855C392.935 113 391.189 112.693 389.615 112.08C388.042 111.467 386.682 110.6 385.535 109.48C384.415 108.333 383.549 106.973 382.935 105.4C382.322 103.827 382.015 102.08 382.015 100.16V0.999992H405.415V91.6ZM559.133 113L628.853 8.2C632.453 2.76 635.999 0.0399952 639.493 0.0399952C642.986 0.0399952 646.533 2.76 650.133 8.2L719.853 113H691.373L639.493 34.44L587.613 113H559.133ZM769.348 0.999992H869.228C872.988 0.999992 876.414 1.45333 879.508 2.36C882.628 3.26666 885.428 4.50666 887.908 6.08C890.414 7.65333 892.588 9.51999 894.428 11.68C896.294 13.84 897.841 16.1867 899.068 18.72C900.294 21.2267 901.214 23.8667 901.828 26.64C902.441 29.3867 902.734 32.16 902.708 34.96C902.708 37.8133 902.401 40.64 901.788 43.44C901.174 46.24 900.254 48.9067 899.028 51.44C897.801 53.9467 896.254 56.2667 894.388 58.4C892.548 60.5333 890.388 62.3867 887.908 63.96C885.428 65.5067 882.628 66.72 879.508 67.6C876.414 68.48 872.988 68.92 869.228 68.92H868.788L904.788 113H875.788L839.788 68.92H779.908V113H756.548L756.508 13.84C756.508 11.92 756.814 10.1733 757.428 8.59999C758.041 7.02666 758.908 5.67999 760.028 4.55999C761.174 3.41333 762.534 2.53333 764.108 1.91999C765.681 1.30666 767.428 0.999992 769.348 0.999992ZM868.788 47.52C870.521 47.52 872.041 47.16 873.348 46.44C874.654 45.72 875.748 44.7733 876.628 43.6C877.508 42.4267 878.161 41.0933 878.588 39.6C879.041 38.08 879.268 36.5333 879.268 34.96C879.294 33.3867 879.094 31.8533 878.668 30.36C878.241 28.84 877.588 27.4933 876.708 26.32C875.854 25.1467 874.761 24.2 873.428 23.48C872.121 22.76 870.574 22.4 868.788 22.4H779.908V47.52H868.788ZM941.351 0.999992H964.751V113H941.351V0.999992ZM1063.8 54.2L1007 0.999992H1043.8L1082 37L1120.2 0.999992H1157L1100.2 54.2L1162.6 113H1126.6L1082 71.24L1037.4 113H1001.4L1063.8 54.2Z" fill="white"/>
</svg>
