<svg width="1166" height="855" viewBox="0 0 1166 855" fill="none" xmlns="http://www.w3.org/2000/svg">
<path d="M495.4 782V820.46C495.4 821.34 495.593 822.193 495.98 823.02C496.367 823.833 496.873 824.56 497.5 825.2C498.14 825.827 498.867 826.333 499.68 826.72C500.507 827.107 501.36 827.3 502.24 827.3H536.88C537.76 827.3 538.607 827.107 539.42 826.72C540.247 826.333 540.973 825.827 541.6 825.2C542.24 824.56 542.753 823.833 543.14 823.02C543.527 822.193 543.72 821.34 543.72 820.46V782H555.4V819.48C555.4 822.04 554.913 824.427 553.94 826.64C552.98 828.84 551.627 830.787 549.88 832.48C549.04 833.293 548.127 834.04 547.14 834.72C546.153 835.4 545.107 835.987 544 836.48C542.907 836.96 541.76 837.333 540.56 837.6C539.373 837.867 538.147 838 536.88 838H502.24C500.973 838 499.74 837.867 498.54 837.6C497.353 837.333 496.207 836.96 495.1 836.48C494.007 835.987 492.967 835.4 491.98 834.72C490.993 834.04 490.08 833.293 489.24 832.48C487.493 830.787 486.133 828.84 485.16 826.64C484.2 824.427 483.72 822.04 483.72 819.48L483.66 782H495.4ZM576.883 782H588.583V838H576.883V782ZM608.646 792.7V782H680.326V792.7H650.346V838H638.646V792.7H608.646Z" fill="white"/>
<path d="M22.16 624H122.04C125.8 624 129.227 624.453 132.32 625.36C135.44 626.267 138.24 627.507 140.72 629.08C143.227 630.653 145.4 632.52 147.24 634.68C149.107 636.84 150.653 639.187 151.88 641.72C153.107 644.227 154.027 646.867 154.64 649.64C155.253 652.387 155.547 655.16 155.52 657.96C155.52 660.813 155.213 663.64 154.6 666.44C153.987 669.24 153.067 671.907 151.84 674.44C150.613 676.947 149.067 679.267 147.2 681.4C145.36 683.533 143.2 685.387 140.72 686.96C138.24 688.507 135.44 689.72 132.32 690.6C129.227 691.48 125.8 691.92 122.04 691.92H32.72V736H9.36L9.32 636.84C9.32 634.92 9.62667 633.173 10.24 631.6C10.8533 630.027 11.72 628.68 12.84 627.56C13.9867 626.413 15.3467 625.533 16.92 624.92C18.4933 624.307 20.24 624 22.16 624ZM121.6 670.52C123.333 670.52 124.853 670.16 126.16 669.44C127.467 668.72 128.56 667.773 129.44 666.6C130.32 665.427 130.973 664.093 131.4 662.6C131.853 661.08 132.08 659.533 132.08 657.96C132.107 656.387 131.907 654.853 131.48 653.36C131.053 651.84 130.4 650.493 129.52 649.32C128.667 648.147 127.573 647.2 126.24 646.48C124.933 645.76 123.387 645.4 121.6 645.4H32.72V670.52H121.6ZM206.727 724.96C203.234 721.573 200.514 717.68 198.567 713.28C196.647 708.853 195.687 704.08 195.687 698.96V661.04C195.687 655.92 196.634 651.2 198.527 646.88C200.421 642.56 203.154 638.613 206.727 635.04C210.301 631.467 214.247 628.733 218.567 626.84C222.914 624.947 227.634 624 232.727 624H302.007C307.101 624 311.807 624.947 316.127 626.84C320.474 628.733 324.434 631.467 328.007 635.04C331.581 638.613 334.314 642.56 336.207 646.88C338.101 651.2 339.047 655.92 339.047 661.04V698.96C339.047 704.08 338.074 708.853 336.127 713.28C334.207 717.68 331.501 721.573 328.007 724.96C326.327 726.587 324.501 728.08 322.527 729.44C320.554 730.8 318.461 731.973 316.247 732.96C314.061 733.92 311.767 734.667 309.367 735.2C306.994 735.733 304.541 736 302.007 736H232.727C230.194 736 227.727 735.733 225.327 735.2C222.954 734.667 220.661 733.92 218.447 732.96C216.261 731.973 214.181 730.8 212.207 729.44C210.234 728.08 208.407 726.587 206.727 724.96ZM219.047 700.92C219.047 702.68 219.434 704.387 220.207 706.04C220.981 707.667 221.994 709.12 223.247 710.4C224.527 711.653 225.981 712.667 227.607 713.44C229.261 714.213 230.967 714.6 232.727 714.6H302.007C303.767 714.6 305.461 714.213 307.087 713.44C308.741 712.667 310.194 711.653 311.447 710.4C312.727 709.12 313.754 707.667 314.527 706.04C315.301 704.387 315.687 702.68 315.687 700.92V659.08C315.687 657.187 315.327 655.413 314.607 653.76C313.914 652.08 312.941 650.627 311.687 649.4C310.461 648.147 309.007 647.173 307.327 646.48C305.674 645.76 303.901 645.4 302.007 645.4H232.727C230.834 645.4 229.047 645.76 227.367 646.48C225.714 647.173 224.261 648.147 223.007 649.4C221.781 650.627 220.807 652.08 220.087 653.76C219.394 655.413 219.047 657.187 219.047 659.08V700.92ZM405.415 714.6H525.335V736H394.855C392.935 736 391.189 735.693 389.615 735.08C388.042 734.467 386.682 733.6 385.535 732.48C384.415 731.333 383.549 729.973 382.935 728.4C382.322 726.827 382.015 725.08 382.015 723.16V624H405.415V714.6ZM559.133 736L628.853 631.2C632.453 625.76 635.999 623.04 639.493 623.04C642.986 623.04 646.533 625.76 650.133 631.2L719.853 736H691.373L639.493 657.44L587.613 736H559.133ZM769.348 624H869.228C872.988 624 876.414 624.453 879.508 625.36C882.628 626.267 885.428 627.507 887.908 629.08C890.414 630.653 892.588 632.52 894.428 634.68C896.294 636.84 897.841 639.187 899.068 641.72C900.294 644.227 901.214 646.867 901.828 649.64C902.441 652.387 902.734 655.16 902.708 657.96C902.708 660.813 902.401 663.64 901.788 666.44C901.174 669.24 900.254 671.907 899.028 674.44C897.801 676.947 896.254 679.267 894.388 681.4C892.548 683.533 890.388 685.387 887.908 686.96C885.428 688.507 882.628 689.72 879.508 690.6C876.414 691.48 872.988 691.92 869.228 691.92H868.788L904.788 736H875.788L839.788 691.92H779.908V736H756.548L756.508 636.84C756.508 634.92 756.814 633.173 757.428 631.6C758.041 630.027 758.908 628.68 760.028 627.56C761.174 626.413 762.534 625.533 764.108 624.92C765.681 624.307 767.428 624 769.348 624ZM868.788 670.52C870.521 670.52 872.041 670.16 873.348 669.44C874.654 668.72 875.748 667.773 876.628 666.6C877.508 665.427 878.161 664.093 878.588 662.6C879.041 661.08 879.268 659.533 879.268 657.96C879.294 656.387 879.094 654.853 878.668 653.36C878.241 651.84 877.588 650.493 876.708 649.32C875.854 648.147 874.761 647.2 873.428 646.48C872.121 645.76 870.574 645.4 868.788 645.4H779.908V670.52H868.788ZM941.351 624H964.751V736H941.351V624ZM1063.8 677.2L1007 624H1043.8L1082 660L1120.2 624H1157L1100.2 677.2L1162.6 736H1126.6L1082 694.24L1037.4 736H1001.4L1063.8 677.2Z" fill="white"/>
<path d="M415.627 591.508C379.526 587.737 364.789 584.199 342.799 574.021C327.608 566.99 318.672 561.321 307.047 551.339C294.23 540.332 286.252 529.915 277.262 512.447C270.455 499.22 266.963 488.593 264.078 472.323C262.287 462.221 261.893 458.156 261.898 449.824C261.912 444.231 262.038 438.91 262.201 438C262.364 437.09 262.705 434.559 262.959 432.375C264.108 422.492 269.138 393.437 270.748 387.377C273.766 376.019 281.859 353.973 287.145 342.709C295.282 325.37 301.014 312.986 301.849 310.945C303.656 306.524 306.035 304.083 306.035 306.65C306.035 307.776 300.13 321.138 298.716 323.211C298.21 323.951 296.927 326.631 295.864 329.166C294.8 331.701 292.524 336.437 290.806 339.69C285.161 350.376 277.942 369.45 274.26 383.406C271.859 392.505 268.754 409.007 267.848 417.486C267.595 419.852 266.751 425.212 265.972 429.398C264.905 435.127 264.535 440.196 264.472 449.912C264.395 461.765 264.568 463.732 266.598 474.065C270.825 495.595 280.597 517.878 292.135 532.299C301.089 543.491 313.8 554.665 326.349 562.378C340.053 570.8 365.06 580.236 382.364 583.516C407.012 588.186 440.955 590.183 462.226 588.214C466.253 587.841 471.281 587.383 473.399 587.194C483.115 586.331 492.175 585.113 496.155 584.134C499.437 583.327 499.475 583.319 509.463 581.628C518.065 580.171 540.051 575.03 546.129 573.054C548.301 572.348 555.593 570.069 562.333 567.989C600.032 556.358 635.924 539.853 671.575 517.753C712.716 492.25 745.128 465.467 778.9 429.067C805.334 400.575 833.798 360.32 849.086 329.805C865.442 297.158 875.653 263.475 878.876 231.535C880.65 213.955 880.6 207.903 878.496 185.571C876.569 165.103 876.455 162.714 877.407 162.714C878.323 162.714 878.604 163.783 880.535 174.625C884.392 196.277 885.126 211.044 883.067 225.58C882.732 227.945 882.255 231.817 882.007 234.182C879.703 256.125 871.05 287.847 860.886 311.607C854.577 326.357 844.891 345.362 838.527 355.478C829.214 370.284 814.56 391.447 808.879 398.295C806.313 401.389 802.541 406.218 800.496 409.027C793.844 418.169 782.024 430.81 759.881 452.463C738.887 472.994 719.046 489.629 700.006 502.662C645.778 539.783 598.624 561.881 539.542 577.861C524.087 582.042 503.877 586.286 491.606 587.927C490.258 588.108 488.456 588.399 487.6 588.575C486.745 588.75 480.443 589.509 473.595 590.261C459.645 591.794 425.412 592.53 415.627 591.508ZM435.585 584.078C435.392 583.894 430.35 583.569 424.38 583.357C405.943 582.701 392.295 580.814 375.801 576.637C360.778 572.833 354.137 570.479 342.085 564.685C329.927 558.839 324.033 555.151 313.075 546.529C292.162 530.075 276.668 503.551 270.281 473.27C267.874 461.857 266.472 441.942 268.144 442.919C268.584 443.175 268.758 443.67 268.53 444.018C268.303 444.366 268.483 444.569 268.931 444.469C269.379 444.368 270.331 445.031 271.045 445.941C272.264 447.495 272.283 447.957 271.357 453.551C269.562 464.394 270.186 467.378 274.523 468.701C276.83 469.405 276.977 469.623 277.024 472.419C277.143 479.576 277.387 480.917 278.968 483.118C279.872 484.377 281.271 487.173 282.078 489.331C288.61 506.818 293.456 514.957 306.115 529.709C319.307 545.082 346.222 560.967 370.46 567.686C373.348 568.487 377.566 569.709 379.832 570.401C385.582 572.157 396.535 574.079 410.252 575.739C426.27 577.677 460.308 577.856 475.5 576.082C481.085 575.43 486.914 574.752 488.455 574.576C492.921 574.067 525.638 567.72 532.702 565.993C542.794 563.526 563.311 557.298 571.938 554.085C576.258 552.476 579.99 551.159 580.233 551.159C580.476 551.159 584.347 549.687 588.836 547.889C607.946 540.232 633.901 528.025 647.766 520.174C657.937 514.414 676.608 502.881 682.864 498.493C685.414 496.705 690.737 493.021 694.692 490.307C702.431 484.998 702.855 484.672 717.51 472.786C744.311 451.051 775.732 418.701 796.029 391.948C818.815 361.914 836.207 332.759 847.112 306.313C859.249 276.879 866.299 249.175 867.741 225.249C868.43 213.827 867.59 188.451 866.219 179.257C865.165 172.188 865.283 171.481 867.715 170.292C868.907 169.71 870.036 169.38 870.224 169.558C870.77 170.074 873.165 184.205 874.038 192.062C875.218 202.684 874.427 231.934 872.621 244.439C869.23 267.921 857.809 301.758 844.257 328.481C838.276 340.274 828.836 356.408 822.259 366.081C819.244 370.514 816.025 375.333 815.105 376.789C810.508 384.068 789.154 411.125 779.102 422.407C770.739 431.794 737.104 464.257 726.764 472.922C706.097 490.241 674.028 512.022 647.416 526.814C623.006 540.383 590.452 554.003 558.432 564.044C525.848 574.262 496.283 580.179 462.545 583.236C456.469 583.787 435.95 584.427 435.585 584.078ZM424.38 572.595C388.274 569.662 365.31 563.674 341.486 550.983C320.62 539.868 300.301 519.855 291.033 501.29C288.386 495.988 284.133 485.598 284.483 485.292C284.964 484.873 289.929 483.806 289.929 484.122C289.929 484.316 289.422 485.856 288.803 487.542C287.056 492.298 288.078 494.018 292.999 494.599L296.845 495.053L300.839 501.007C309.783 514.338 316.398 521.737 326.543 529.752C338.929 539.538 352.871 547.301 368.009 552.842C376.767 556.047 397.416 561.326 404.073 562.061C406.191 562.295 409.815 562.784 412.126 563.147C422.3 564.746 462.697 564.513 479.001 562.76C506.589 559.795 541.516 551.803 567.935 542.41C605.663 528.997 631.065 516.92 662.822 497.299C691.74 479.431 712.426 462.846 742.148 433.699C761.622 414.601 775.547 398.49 791.05 377.12C817.74 340.328 832.939 311.002 843.473 275.968C847.135 263.788 851.1 246.478 852.362 237.16C853.378 229.655 853.612 198.583 852.718 189.81L852.142 184.149L856.338 181.368L860.534 178.586L860.928 180.411C864.135 195.247 863.82 228.919 860.305 247.086C857.176 263.259 848.716 291.639 843.341 303.996C828.84 337.332 814.141 361.751 788.969 394.325C765.852 424.239 726.139 462.887 696.919 483.905C669.281 503.786 643.646 519.019 616.954 531.425C597.035 540.683 586.982 544.667 563.384 552.657C538.557 561.063 502.439 569.078 479.001 571.382C468.822 572.383 431.872 573.203 424.38 572.595ZM422.812 554.045C411.315 552.459 394.719 548.972 386.748 546.469C378.662 543.93 369.169 540.278 368.15 539.315C367.726 538.914 366.799 538.586 366.09 538.586C365.381 538.586 363.947 538.037 362.904 537.366C357.992 534.208 355.281 532.63 354.767 532.63C354.458 532.63 353.269 531.886 352.125 530.976C350.981 530.066 349.624 529.321 349.11 529.321C348.596 529.321 347.38 528.428 346.408 527.336C345.436 526.244 344.18 525.351 343.617 525.351C343.055 525.351 341.626 524.309 340.442 523.035C339.259 521.761 337.887 520.719 337.393 520.719C336.476 520.719 335.891 520.229 327.393 512.342C321.865 507.211 320.639 505.809 315.779 499.076C312.522 494.564 311.569 492.264 312.956 492.264C313.296 492.264 315.533 494.811 317.927 497.925C325.068 507.212 328.705 510.812 339.286 519.064C346.584 524.756 352.162 528.491 358.205 531.734C375.365 540.941 389.329 545.597 410.725 549.248C420.888 550.982 433.492 553.732 434.85 554.512C436.316 555.354 430.727 555.137 422.812 554.045ZM457.993 542.446C446.731 541.878 422.177 538.474 411.411 535.989C387.033 530.36 364.23 519.201 344.885 503.434C338.531 498.255 329.381 488.893 329.569 487.762C329.609 487.513 331.161 486.467 333.015 485.438L336.386 483.567L339.18 486.757C353.166 502.722 377.503 517.599 401.909 525.101C426.017 532.512 444.802 534.972 473.049 534.416C483.063 534.22 492.044 533.912 493.007 533.734C494.566 533.445 498.329 532.923 503.511 532.277C514.095 530.959 544.661 523.672 558.482 519.172C568.021 516.066 592.979 505.965 606.801 499.615C631.195 488.409 649.92 477.573 671.351 462.259C696.705 444.142 730.157 412.188 750.382 386.767C764.434 369.104 777.21 350.14 785.231 335.042C789.741 326.551 798.128 307.316 801.396 297.965C803.163 292.911 805.734 285.65 807.11 281.828C809.585 274.952 813.312 258.872 815.545 245.432C816.346 240.606 816.751 233.305 816.87 221.526C816.964 212.2 817.26 204.234 817.527 203.824C817.795 203.415 818.429 203.08 818.937 203.08C819.445 203.08 820.253 202.634 820.732 202.088C821.874 200.788 823.971 200.817 824.508 202.14C825.6 204.828 826.368 225.385 825.653 232.781C824.519 244.507 820.902 264.645 818.25 273.996C813.885 289.389 802.949 317.35 795.13 333.113C785.704 352.115 765.537 381.72 750.033 399.315C717.945 435.728 685.687 463.449 652.15 483.429C636.77 492.592 633.955 494.117 618.314 501.76C579.39 520.78 536.474 534.787 502.46 539.571C482.705 542.35 471.048 543.104 457.993 542.446ZM467.097 516.975C465.749 516.852 461.022 516.44 456.593 516.058C419.407 512.853 383.236 498.325 359.994 477.259C355.164 472.881 355.083 472.347 359.097 471.337C360.328 471.027 361.44 471.594 363.999 473.835C381.372 489.054 401.597 499.555 425.433 505.731C436.224 508.526 439.007 509 455.542 510.853C466.202 512.048 470.362 512.204 482.503 511.863C506.87 511.179 521.399 509.337 543.543 504.124C560.821 500.056 584.095 492.097 592.141 487.505C594.812 485.98 603.614 481.869 611.702 478.369C639.171 466.48 671.938 445.54 693.47 426.113C697.604 422.383 700.983 419.735 700.98 420.229C700.966 421.917 697.677 427.741 694.306 432.045C681.872 447.919 651.545 470.236 627.263 481.38C621.407 484.068 617.559 485.339 612.157 486.368C603.396 488.036 600.709 488.919 587.193 494.564C563.029 504.657 535.841 511.785 509.113 515.033C494.213 516.844 475.275 517.719 467.097 516.975ZM263.085 488.505C262.498 486.023 261.801 481.609 261.537 478.698C261.273 475.786 260.887 473.134 260.679 472.805C260.471 472.476 260.666 472.419 261.11 472.679C261.554 472.938 261.918 473.988 261.918 475.011C261.918 476.035 262.561 480.372 263.348 484.651C264.924 493.23 264.763 495.593 263.085 488.505ZM297.632 486.742C297.632 482.712 303.398 471.168 310.244 461.492C313.261 457.228 315.828 453.094 314.967 453.882C314.769 454.064 312.968 456.27 310.966 458.784C299.625 473.022 293.504 478.015 287.93 477.576C285.474 477.382 285.38 477.281 285.454 474.921C285.594 470.471 290.321 464.291 303.363 451.505C321.967 433.265 333.658 421.167 340.275 413.306C343.589 409.369 346.41 405.796 346.543 405.365C346.677 404.935 341.973 409.347 336.09 415.17C330.208 420.993 322.378 428.59 318.691 432.051C315.004 435.512 307.312 442.877 301.599 448.416C293.176 456.581 290.365 458.88 286.745 460.564C283.247 462.191 281.757 462.549 279.869 462.215C278.544 461.98 277.279 461.343 277.058 460.799C276.502 459.43 279.554 451.754 281.958 448.476C283.052 446.984 286.611 443.645 289.867 441.055C293.123 438.465 298.52 434.113 301.86 431.383C305.2 428.653 311.977 423.144 316.921 419.14C326.966 411.006 341.156 398.802 345.95 394.174C353.248 387.13 353.615 386.458 347.293 391.719C343.603 394.79 338.268 399.089 335.438 401.273C318.209 414.569 313.199 418.455 305.335 424.624C289.374 437.145 282.86 441.309 279.234 441.309C277.443 441.309 273.822 438.185 273.823 436.641C273.824 436.115 274.744 433.847 275.868 431.601C277.723 427.896 278.485 427.156 284.096 423.615C287.496 421.469 295.951 416.482 302.884 412.533C319.516 403.06 333.699 394.493 338.728 390.883C346.489 385.311 354.026 380.584 358.555 378.445C365.103 375.353 372.336 371.23 373.397 369.984C373.9 369.395 372.578 369.879 370.46 371.06C368.342 372.241 363.292 374.769 359.24 376.679C355.188 378.589 347.595 382.869 342.368 386.189C337.141 389.509 328.324 394.833 322.776 398.018C317.227 401.204 309.901 405.409 306.495 407.362C298.462 411.967 292.408 414.839 290.734 414.839C289.921 414.839 289.07 414.089 288.558 412.922C287.866 411.342 287.916 410.641 288.848 408.938C289.918 406.984 295.001 402.928 296.38 402.928C296.731 402.928 300.46 400.998 304.665 398.638C308.871 396.279 314.375 393.465 316.897 392.385C319.419 391.304 324.073 388.947 327.239 387.147C330.405 385.347 334.886 382.918 337.197 381.749C342.934 378.846 355.113 371.101 360.737 366.779C368.94 360.474 376.302 352.644 380.63 345.62C382.85 342.017 385.717 337.45 387.003 335.471C388.288 333.493 389.237 331.777 389.112 331.659C388.987 331.541 387.497 331.921 385.8 332.503C383.529 333.283 381.328 333.464 377.462 333.193C372.766 332.863 364.357 331.206 363.561 330.455C363.394 330.297 365.114 328.191 367.383 325.776C373.888 318.854 379.768 311.324 390.076 296.717C395.322 289.283 396.649 286.308 391.899 292.63C390.699 294.227 387.735 298.033 385.312 301.089C382.889 304.144 378.202 310.118 374.897 314.365C366.168 325.581 361.159 328.537 354.415 326.452C352.455 325.846 350.852 325.124 350.852 324.846C350.852 324.568 355.533 319.285 361.253 313.107C366.974 306.929 374.133 298.778 377.162 294.994C380.192 291.21 383.908 286.843 385.421 285.289C386.933 283.734 388.022 282.322 387.839 282.149C387.328 281.666 377.433 291.687 366.963 303.291C353.842 317.832 349.968 320.871 344.549 320.871C341.745 320.871 333.346 316.739 333.346 315.359C333.346 315.138 335.013 313.948 337.052 312.716C339.09 311.483 343.739 308.002 347.381 304.978C355.913 297.897 382.455 273.451 380.598 274.384C376.985 276.2 369.754 281.802 362.57 288.35C346.497 302.999 335.239 310.283 328.672 310.283C324.942 310.283 321.227 308.576 317.954 305.356L315.518 302.959L317.254 302.542C323.213 301.109 342.594 289.526 358.466 277.911C370.772 268.906 370.309 269.287 368.974 269.27C368.349 269.257 359.178 274.728 348.594 281.417C322.068 298.182 317.522 300.028 309.494 297.301C306.037 296.126 299.733 291.665 299.733 290.393C299.733 290.07 301.545 289.314 303.759 288.713C312.431 286.36 328.077 279.995 345.194 271.857C355.046 267.173 363.877 262.765 364.819 262.061L366.531 260.783L363.716 261.269C362.167 261.537 357.3 263.429 352.9 265.473C329.989 276.12 314.293 282.201 305.502 283.835C300.071 284.845 296.085 284.016 291.039 280.828C287.649 278.685 283.141 274.125 283.799 273.503C283.969 273.343 287.545 272.906 291.745 272.532C295.946 272.159 302.186 271.234 305.613 270.476C311.519 269.171 327.475 264.164 338.948 260.016C341.836 258.972 346.878 257.486 350.152 256.714C357.354 255.016 359.956 254.088 359.956 253.218C359.956 251.682 353.498 253.281 325.993 261.631C307.465 267.256 301.68 268.556 294.795 268.641C285.081 268.761 280.293 266.878 274.06 260.488C268.387 254.672 267.681 255.027 284.921 255.027C298.43 255.027 310.052 254.495 314.088 253.691C314.859 253.537 316.749 253.252 318.29 253.057C319.83 252.862 326.133 251.531 332.295 250.1C338.458 248.669 346.336 247.292 349.802 247.041C354.051 246.734 355.648 246.412 354.704 246.055C352.406 245.186 345.378 245.364 341.15 246.4C332.124 248.609 301.015 252.353 292.03 252.311C287.262 252.288 278.521 251.259 275.214 250.331C272.142 249.469 270.524 248.358 265.825 243.887C262.411 240.638 259.244 236.864 257.882 234.421C256.635 232.186 255.616 230.191 255.616 229.987C255.616 229.784 256.659 230.029 257.935 230.533C262.988 232.528 283.764 236.731 297.282 238.492C303.563 239.31 345.576 238.705 348.937 237.748C349.616 237.554 349.983 237.107 349.752 236.754C349.494 236.359 345.919 236.266 340.464 236.513C311.674 237.816 294.381 236.404 275.306 231.191C263.917 228.078 257.609 224.172 250.676 215.939C247.477 212.14 242.003 203.15 242.565 202.619C242.679 202.511 245.269 203.428 248.319 204.658C268.291 212.711 273.278 214.58 283.626 217.888C296.16 221.895 316.462 226.08 332.059 227.87C342.38 229.055 345.95 229.147 345.95 228.226C345.95 227.863 345.783 227.565 345.578 227.565C343.551 227.565 318.893 223.738 311.214 222.231C271.795 214.498 243.291 198.154 235.616 178.885L233.881 174.528L235.47 174.995C236.344 175.252 249.348 181.192 264.369 188.195C279.39 195.198 296.249 202.634 301.833 204.72C316.838 210.323 338.898 218.3 339.39 218.3C340.866 218.3 337.526 216.232 333.523 214.666C330.922 213.649 325.012 211.253 320.391 209.341C297.473 199.86 288.344 195.89 280.901 192.166C276.43 189.93 268.535 186.501 263.357 184.548C258.178 182.594 251.685 179.569 248.927 177.826C242.892 174.012 235.568 166.82 233.319 162.499C231.779 159.541 229.431 149.518 230.125 148.862C230.3 148.697 232.246 150.212 234.451 152.23C238.6 156.026 253.858 167.719 258.755 170.854C262.805 173.448 263.32 173.046 260.067 169.827C253.266 163.099 241.11 147.157 237.234 139.883C233.005 131.945 229.586 115.573 230.839 109.258L231.27 107.088L234.164 110.941C240.324 119.141 253.182 134.392 260.52 142.2C263.085 144.929 268.064 150.763 271.584 155.163C280.852 166.748 291.572 176.028 307.044 185.858C310.918 188.319 317.682 192.769 322.074 195.745C329.52 200.791 333.928 203.455 332.295 201.923C330.656 200.384 314.33 187.782 309.186 184.085C296.032 174.63 274.919 155.124 271.03 148.83C269.508 146.368 266.422 142.008 264.173 139.14C256.606 129.497 246.68 112.603 243.562 104.062C240.779 96.4393 240.718 96.0809 240.792 87.7221C240.872 78.8226 241.233 76.4574 242.454 76.8419C243.221 77.0838 249.395 86.9027 252.965 93.5612C256.355 99.8822 267.27 116.758 272.868 124.332C288.555 145.558 294.864 152.755 313.672 170.883C322.379 179.275 330.365 185.793 323.452 178.865C321.67 177.079 319.149 174.239 317.85 172.554C316.551 170.87 311.947 165.705 307.618 161.078C292.732 145.167 281.473 129.792 272.536 113.172C266.724 102.365 264.408 96.8994 261.771 87.7695C260.399 83.0175 260.204 80.8132 260.264 70.7309C260.333 58.8746 260.884 55.3226 262.703 54.9915C264.058 54.7447 265.043 56.7804 272.052 74.3232C282.625 100.784 290.25 116.036 299.555 129.337C304.439 136.317 312.787 146.832 313.446 146.832C313.998 146.832 311.371 141.094 306.175 130.95C297.332 113.685 293.13 101.489 291.362 87.9537C290.048 77.899 290.677 61.4664 292.375 61.4664C293.685 61.4664 295.207 65.2938 300.008 80.6571C302.453 88.4822 305.771 98.1603 307.383 102.164C315.751 122.959 331.114 148.314 346.275 166.353C353.742 175.237 355.139 176.629 370.091 190.075C389.345 207.39 392.578 211.332 399.153 225.514C400.739 228.935 403.149 233.317 404.507 235.252C410.081 243.188 427.366 258.648 436.417 263.793C439.672 265.643 441.064 265.998 446.468 266.35C453.209 266.791 454.317 266.6 473.704 261.665C491.079 257.243 502.125 257.149 510.729 261.352C512.922 262.423 516.46 264.152 518.594 265.195L522.472 267.091L517.099 271.833C514.143 274.442 511.851 276.695 512.005 276.841C512.16 276.987 514.802 276.803 517.877 276.434C528.334 275.178 548.345 277.4 546.056 279.564C545.833 279.774 540.187 280.685 533.509 281.587C523.894 282.887 520.484 283.629 517.124 285.155C506.782 289.85 492.641 302.53 487.156 312.028C479.621 325.077 472.299 333.908 463.901 340.076C461.682 341.706 454.286 347.26 447.465 352.419L435.065 361.798L434.985 358.457C434.891 354.48 433.06 347.14 431.469 344.363L430.333 342.378L430.134 345.025C430.025 346.481 430.219 350.054 430.567 352.966C430.915 355.878 431.256 362.398 431.325 367.456C431.454 376.894 432.615 385.215 434.511 390.292C435.853 393.887 435.864 394.987 434.559 394.987C433.252 394.987 432.083 397.034 432.083 399.326C432.083 400.825 431.92 400.976 431.042 400.288C430.469 399.839 429.535 399.64 428.967 399.846C427.538 400.364 425.757 398.029 422.965 391.976L420.609 386.87L419.794 389.44C418.892 392.283 418.775 392.146 416.986 386.138C416.185 383.45 415.42 382.152 414.502 381.925C413.773 381.745 413.176 381.09 413.176 380.469C413.176 378.681 411.009 373.149 410.309 373.149C409.96 373.149 409.628 373.819 409.571 374.638C409.513 375.457 409.403 376.574 409.325 377.12C409.246 377.666 409.135 378.643 409.078 379.292C409.006 380.108 406.345 381.684 400.45 384.401C392.753 387.95 390.811 389.162 390.778 390.438C390.765 390.667 393.469 390.118 396.771 389.218C400.073 388.319 402.921 387.722 403.102 387.893C403.282 388.063 402.799 389.212 402.029 390.445C397.614 397.517 392.302 414.551 388.955 432.375C387.764 438.712 386.679 442.689 385.953 443.373C384.541 444.703 377.568 448.246 377.147 447.848C376.687 447.414 384.004 418.96 386.784 410.372C388.11 406.278 388.955 402.928 388.664 402.928C387.737 402.928 381.212 420.149 378.886 428.736C375.34 441.826 370.567 455.06 368.841 456.584C366.937 458.266 360.439 461.823 359.269 461.823C357.844 461.823 358.15 460.97 370.448 430.721C375.042 419.422 378.163 411.159 378.163 410.296C378.163 408.555 371.265 423.096 358.899 450.904C352.224 465.914 350.111 468.746 343.073 472.117C339.26 473.942 337.547 474.161 337.547 472.821C337.547 472.318 342.31 462.863 348.131 451.81C357.544 433.937 362.026 425.007 365.355 417.486C366.271 415.419 366.267 415.277 365.322 416.163C363.994 417.407 357.402 428.965 349.66 443.625C342.18 457.789 334.52 470.804 331.279 474.856C329.904 476.575 327.547 478.772 326.042 479.738C322.65 481.915 317.134 483.836 315.102 483.547C313.639 483.339 313.714 483.083 316.902 477.374C318.731 474.099 322.433 467.994 325.127 463.808C341.661 438.123 354.681 416.912 354.194 416.453C353.848 416.125 347.603 424.247 343.478 430.39C338.521 437.771 328.975 452.161 320.23 465.433C310.081 480.835 308.536 482.785 303.989 485.94C299.956 488.737 297.632 489.03 297.632 486.742ZM400.919 371.822C399.552 369.732 401.127 357.801 403.45 352.648C404.174 351.041 404.16 351.031 402.796 352.199C400.809 353.897 398.413 359.514 397.983 363.478C397.537 367.596 398.789 372.487 400.289 372.487C400.875 372.487 401.158 372.188 400.919 371.822ZM387.95 342.73C389.94 340.193 393.673 336.289 396.245 334.053C398.817 331.817 400.134 330.365 399.171 330.825C396.49 332.107 387.114 341.365 385.294 344.529C384.403 346.075 383.823 347.341 384.004 347.341C384.185 347.341 385.961 345.266 387.95 342.73ZM467.252 324.594C469.285 323.729 471.935 322.017 473.141 320.788C475.716 318.166 479.264 312.93 478.466 312.93C478.162 312.93 475.716 315.027 473.03 317.59C470.345 320.153 466.808 322.995 465.171 323.905C460.266 326.632 461.498 327.04 467.252 324.594ZM434.133 296.411C437.111 294.996 441.886 293.224 444.744 292.473C447.602 291.722 454.037 290.029 459.044 288.71C464.051 287.391 468.935 285.91 469.898 285.42L471.649 284.528L469.198 284.409C462.901 284.103 461.439 283.953 456.964 283.155C450.59 282.018 439.523 282.642 433.134 284.498C428.281 285.908 425.299 287.408 428.633 286.761C431.851 286.138 452.743 285.82 453.678 286.38C454.291 286.747 451.928 287.571 446.868 288.757C435.832 291.345 429.273 294.481 420.642 301.296C414.765 305.936 415.522 306.545 422.324 302.648C425.841 300.632 431.156 297.826 434.133 296.411ZM468.847 293.168C475.395 289.853 480.335 287.136 479.825 287.131C477.352 287.106 467.803 290.798 463.677 293.373C458.597 296.544 454.234 299.977 455.892 299.498C456.47 299.331 462.3 296.483 468.847 293.168ZM508.102 270.537C509.532 269.044 509.093 267.722 506.671 266.222C505.238 265.334 504.503 265.248 503.193 265.812C500.561 266.945 500.185 269.228 502.342 270.981C504.356 272.618 506.249 272.472 508.102 270.537ZM389.32 221.508C386.403 216.077 383.475 212.657 373.264 202.749C362.998 192.789 357.007 186.268 348.792 176.114C346.362 173.111 344.252 170.655 344.102 170.655C343.53 170.655 348.356 179.129 351.451 183.559C357.301 191.93 363.955 199.263 377.279 212.022C384.505 218.942 390.518 224.554 390.641 224.494C390.765 224.434 390.17 223.09 389.32 221.508ZM532.572 482.996C514.557 480.095 499.848 475.671 484.253 468.462C463.935 459.069 450.38 449.887 434.742 434.924C421.615 422.364 406.173 402.973 406.173 399.049C406.173 398.706 407.316 397.789 408.713 397.01L411.253 395.594L412.354 397.11C412.96 397.944 415.362 400.528 417.692 402.853C424.365 409.509 429.986 411.318 438.345 409.497C440.055 409.125 443.098 409.014 445.106 409.251L448.758 409.682L447.08 413.088C443.212 420.939 446.735 430.952 454.72 434.802C457.151 435.973 457.894 436.054 460.209 435.399C462.958 434.621 464.996 432.113 464.996 429.508C464.996 428.805 467.091 426.279 469.651 423.895L474.307 419.56L477.286 421.666C478.925 422.825 481.274 424.297 482.506 424.939C484.214 425.828 484.618 426.378 484.206 427.255C483.908 427.887 483.53 429.662 483.365 431.199C482.974 434.842 485.013 438.039 488.74 439.627C496.611 442.981 507.174 434.442 507.174 424.724C507.174 422.736 506.499 420.186 505.342 417.798C504.335 415.719 503.511 413.783 503.511 413.496C503.511 413.209 504.85 413.601 506.487 414.368C514.619 418.178 521.718 413.708 521.718 404.777C521.718 399.454 519.172 395.116 513.816 391.311C508.273 387.374 506.833 386.705 501.783 385.721C496.6 384.711 490.773 385.226 482.859 387.393C479.57 388.294 475.606 389.031 474.049 389.031C469.947 389.031 465.17 387.744 464.587 386.482C463.788 384.754 463.341 367.855 464.094 367.855C464.457 367.855 466.778 368.642 469.252 369.603C472.307 370.791 475.274 371.402 478.503 371.509C481.618 371.612 483.67 372.02 484.457 372.693C488.788 376.397 499.822 376.58 503.964 373.016C505.401 371.78 505.572 371.772 507.753 372.838C512.081 374.953 521.272 373.115 524.908 369.407C526.314 367.974 526.952 367.728 527.884 368.259C531.48 370.308 540.912 368.471 544.762 364.972C546.789 363.13 547.84 362.682 550.168 362.666C553.306 362.645 557.683 361.164 559.694 359.445C560.484 358.769 562.33 358.33 564.621 358.273C566.637 358.223 569.629 357.814 571.271 357.365C574.512 356.48 578.821 353.303 579.492 351.305C579.724 350.613 580.33 350.207 580.848 350.395C582.28 350.914 590.309 349.384 593.837 347.919C597.467 346.412 600.036 344.338 600.905 342.212C601.363 341.091 602.079 340.722 603.807 340.717C607.989 340.705 616.254 335.159 616.254 332.362C616.254 331.866 616.805 331.453 617.479 331.445C619.939 331.416 624.536 328.882 629.607 324.759C637.768 318.126 639.918 315.743 642.603 310.353C644.982 305.577 647.379 302.342 648.537 302.342C648.827 302.342 649.009 304.598 648.941 307.354C648.821 312.195 648.891 312.43 651.006 314.22C652.21 315.24 653.596 316.2 654.085 316.354C654.775 316.572 654.684 317.445 653.681 320.242C652.035 324.832 652.006 330.444 653.613 333.308C654.927 335.649 658.195 337.9 661.144 338.496C662.89 338.849 662.966 339.054 662.966 343.355C662.966 350.879 666.706 356.257 673.183 358.044C676.79 359.04 677.153 359.499 677.167 363.079C677.192 369.726 682.787 376.091 688.471 375.939C692.651 375.827 700.253 370.68 702.94 366.142C703.624 364.988 703.818 364.976 706.005 365.948C713.043 369.079 723.892 363.877 726.971 355.896C728.195 352.724 728.674 352.107 729.444 352.71C729.969 353.122 730.398 354 730.398 354.662C730.398 360.194 714.84 389.304 704.602 402.928C696.376 413.873 678.857 429.744 661.552 441.927C650.733 449.544 628.101 463.482 621.305 466.714C610.218 471.986 590.768 479.812 585.69 481.043C567.544 485.445 551.453 486.037 532.572 482.996ZM260.315 470.426C260.113 469.698 260.235 469.102 260.583 469.102C260.932 469.102 261.218 469.698 261.218 470.426C261.218 471.154 261.097 471.749 260.949 471.749C260.802 471.749 260.516 471.154 260.315 470.426ZM259.873 466.731C259.906 465.96 260.072 465.803 260.296 466.331C260.498 466.809 260.473 467.38 260.24 467.6C260.008 467.82 259.842 467.429 259.873 466.731ZM259.172 462.099C259.206 461.328 259.372 461.171 259.595 461.699C259.798 462.177 259.773 462.748 259.54 462.968C259.307 463.187 259.142 462.797 259.172 462.099ZM494.027 432.949C496.085 428.173 495.841 424.067 493.384 422.14C492.627 421.546 492.337 421.804 491.965 423.403C491.709 424.508 491.208 425.582 490.852 425.789C489.988 426.294 490.031 423.963 490.926 421.735C491.43 420.483 491.415 419.276 490.876 417.731C489.687 414.328 488.518 414.114 488.982 417.385C489.197 418.896 489.233 420.133 489.064 420.133C488.029 420.133 485.074 417.661 484.2 416.064C483.632 415.027 482.624 414.174 481.96 414.17C481.296 414.158 479.194 412.996 477.288 411.57C473.346 408.618 472.673 408.71 469.507 412.633C466.076 416.883 465.171 417.486 462.222 417.486C459.554 417.486 459.418 417.592 458.651 420.282C458.213 421.819 458.047 424.574 458.282 426.403L458.709 429.728L457.067 427.999C456.117 426.999 455.044 424.573 454.52 422.244C453.214 416.425 454.442 414.496 462.937 409.026C466.573 406.685 471.124 403.45 473.049 401.838C476.281 399.131 476.362 398.994 474.1 400.057C468.447 402.711 441.81 401.554 438.238 398.5C436.129 396.696 436.788 396.31 441.975 396.31H446.964L446.519 394.16C446.273 392.977 445.437 391.264 444.66 390.354C443.883 389.445 441.818 385.989 440.07 382.674C437.424 377.655 436.831 375.831 436.522 371.756L436.152 366.863L440.245 363.894C442.496 362.262 447.299 358.579 450.918 355.71L457.498 350.495L457.067 353.054C455.146 364.447 454.419 379.886 455.47 386.979C455.898 389.867 455.867 391.079 455.374 390.791C454.976 390.559 454.262 390.812 453.786 391.354C452.327 393.015 454.141 394.151 459.608 394.999C462.379 395.429 466.358 396.049 468.451 396.377C474.576 397.335 478.376 397.08 484.655 395.289C493.606 392.738 498.098 392.518 503.547 394.366C511.636 397.109 513.315 398.966 513.315 405.172C513.315 409.372 512.283 410.628 511.687 407.154C511.132 403.923 508.242 400.548 505.222 399.607C503.844 399.177 502.524 399.008 502.287 399.231C502.051 399.455 500.99 398.852 499.929 397.891C497.973 396.121 496.197 396.046 493.707 397.628C492.069 398.669 494.225 399.689 497.036 399.203C500.254 398.647 503.597 400.343 505.461 403.477C507.535 406.964 507.45 407.66 505.087 406.573C504.027 406.086 500.154 405.106 496.478 404.395C492.803 403.685 488.769 402.602 487.515 401.989C485.331 400.922 485.135 400.933 482.855 402.265C480.829 403.448 479.028 405.957 479.813 406.502C479.945 406.594 482.494 407.494 485.478 408.504C492.198 410.778 496.19 414.537 498.161 420.447C499.965 425.855 498.558 431.623 494.994 433.425C493.667 434.097 493.556 434.042 494.027 432.949ZM260.628 430.059C260.628 429.149 260.787 428.777 260.981 429.232C261.176 429.687 261.176 430.431 260.981 430.886C260.787 431.341 260.628 430.969 260.628 430.059ZM260.87 418.479C261.454 402.635 268.933 373.911 278.327 351.432C284.882 335.743 296.702 311.169 297.383 311.812C297.681 312.094 296.252 315.338 286.396 336.753C274.308 363.017 267.922 384.595 261.623 420.464L260.577 426.42L260.87 418.479ZM264.709 400.667C264.723 398.974 264.322 399.502 263.746 401.935C263.403 403.385 263.468 403.653 263.987 402.928C264.378 402.382 264.703 401.364 264.709 400.667ZM271.93 414.778C272.389 407.436 275.972 389.587 279.411 377.51C284.541 359.491 293.031 339.136 305.313 315.412C308.116 309.995 309.517 308.648 310.609 310.318C311.093 311.057 307.774 319.441 304.598 325.503C301.587 331.25 291.013 356.298 288.675 363.223C284.132 376.678 281.176 390.212 277.937 412.392C277.2 417.441 276.846 418.375 275.28 419.398C271.287 422.005 271.462 422.246 271.93 414.778ZM282.502 403.045C282.689 402.435 283.189 399.553 283.615 396.641C285.595 383.111 291.674 361.731 297.447 348.003C300.693 340.281 312.398 315.262 313.057 314.635C313.975 313.763 317.24 315.31 317.24 316.617C317.24 317.205 313.809 325.624 309.617 335.326C305.425 345.028 301.347 354.901 300.554 357.267C298.314 363.951 294.294 378.449 293.765 381.752C293.17 385.472 290.688 397.577 290.211 399.092C290.015 399.712 288.125 401.105 286.009 402.187C282.96 403.748 282.234 403.926 282.502 403.045ZM717.793 401.428C717.793 399.963 723.192 391.793 728.596 385.082C733.025 379.581 745.54 362.183 751.323 353.488C759.077 341.831 772.638 316.507 776.693 306.114C779.62 298.612 783.387 284.528 785.49 273.225C787.886 260.342 788.518 238.481 786.842 226.46C785.288 215.314 785.248 215.653 788.114 215.653C790.506 215.653 790.51 215.666 791.744 220.451C793.178 226.019 793.775 251.246 792.688 260.321C790.773 276.31 786.554 293.471 781.247 306.857C777.297 316.819 768.937 334.114 765.037 340.393C763.454 342.94 761.33 346.663 760.317 348.665C756.546 356.118 739.771 378.949 730.415 389.362C728.126 391.91 724.637 395.855 722.662 398.13C719.142 402.185 717.793 403.099 717.793 401.428ZM313.341 382.91C313.543 381.727 314.05 378.377 314.468 375.465C315.882 365.61 320.12 349.052 324.377 336.753C326.708 330.02 328.767 324.265 328.953 323.965C329.139 323.664 330.067 324.107 331.015 324.949C333.107 326.806 333.015 327.529 329.12 339.731C326.172 348.967 323.216 360.839 322.53 366.201C322.047 369.98 320.139 380.266 319.646 381.752C319.326 382.715 315.096 385.061 313.677 385.061C313.276 385.061 313.132 384.139 313.341 382.91ZM336.858 370.323C336.888 362.594 342.081 336.342 344.068 333.876C344.802 332.965 345.061 332.957 346.269 333.812C347.547 334.717 347.577 335.032 346.727 338.58C345.029 345.67 344.436 348.98 342.916 359.859L341.399 370.723L339.123 371.923L336.847 373.123L336.86 370.324L336.858 370.323ZM492.43 366.883C490.38 366.418 488.376 365.729 487.977 365.352C487.476 364.878 488.683 363.004 491.871 359.303C499.237 350.751 509.088 336.454 510.143 332.783L510.619 331.128L509.341 332.878C497.971 348.439 490.206 357.883 486.499 360.659C482.346 363.77 479.888 364.233 474.203 362.972C469.584 361.947 468.216 361.269 469.736 360.757C473.69 359.424 491.622 343.754 495.229 338.481C499.086 332.842 498.728 330.924 494.767 336.008C491.386 340.348 478.897 352.094 472.818 356.651C470.601 358.313 467.965 359.643 466.326 359.926L463.566 360.403L463.92 358.339C465.746 347.665 465.046 348.964 473.062 341.385C481.97 332.964 485.237 328.935 491.693 318.412C494.569 313.723 498.844 307.978 501.871 304.732L507.089 299.137L512.128 300.774C524.878 304.915 530.056 305.696 549.728 306.441C559.935 306.828 570.413 307.087 573.012 307.017C575.612 306.948 577.739 307.05 577.739 307.247C577.739 307.442 576.784 308.069 575.616 308.64C570.147 311.312 577.933 311.458 588.243 308.876C594.089 307.413 605.029 302.196 613.284 296.935C616.265 295.035 621.777 290.512 625.533 286.885C630.639 281.952 632.36 280.634 632.36 281.654C632.36 284.731 623.365 293.684 612.508 301.412C610.255 303.015 608.809 304.327 609.294 304.327C610.655 304.327 622.531 298.116 630.426 293.274C634.332 290.879 640.345 286.57 643.79 283.697C647.234 280.824 650.195 278.609 650.369 278.774C651.162 279.522 647.768 284.488 643.634 288.629C639.369 292.902 626.93 302.342 625.566 302.342C624.823 302.342 617.087 306.933 617.788 306.958C620.54 307.054 637.856 299.197 645.315 294.468C650.036 291.474 650.185 291.449 648.136 293.987C645.437 297.331 633.471 304.743 625.358 308.096C619.708 310.43 616.751 311.144 605.75 312.827C584.449 316.087 583.969 316.192 592.095 315.813C602.543 315.326 619.004 313.093 625.736 311.249C629.006 310.354 631.991 309.621 632.371 309.621C634.032 309.621 632.776 311.011 629.208 313.12C621.587 317.625 603.742 320.973 591.898 320.121C588.54 319.879 583.586 319.499 580.89 319.275L575.989 318.869L580.54 320.189C583.044 320.915 589.048 321.848 593.883 322.263C601.352 322.903 604.075 322.848 611.982 321.897C617.102 321.281 621.431 320.911 621.603 321.073C622.082 321.526 617.363 323.996 613.893 325.109C604.398 328.156 589.479 328.199 577.516 325.214C573.735 324.27 569.481 322.945 568.063 322.269C564.386 320.517 562.333 319.995 562.333 320.812C562.333 323.497 586.565 329.793 602.136 331.155C604.963 331.402 607.011 331.839 606.688 332.126C606.365 332.412 602.998 333.316 599.207 334.134C593.429 335.38 591.107 335.557 584.851 335.225C580.747 335.008 575.498 334.356 573.187 333.778C567.739 332.413 551.299 325.173 548.99 323.121C547.157 321.493 545.527 321.041 545.527 322.16C545.527 325.171 569.521 335.227 584.37 338.439C590.708 339.811 591.725 340.332 589.881 341.265C584.931 343.768 569.923 343.858 561.621 341.435C555.349 339.604 545.483 333.929 540.007 329.001C537.494 326.74 535.357 324.966 535.257 325.061C534.905 325.394 537.237 329.163 538.746 330.7C539.587 331.556 543.746 334.446 547.988 337.122C554.632 341.312 559.368 343.684 569.686 347.989L571.787 348.865L568.636 349.8C563.935 351.193 556.526 350.601 551.509 348.431C549.257 347.457 547.297 346.77 547.154 346.906C547.011 347.041 548.477 348.513 550.412 350.177C552.347 351.841 553.93 353.495 553.93 353.853C553.93 354.911 548.707 355.429 545.717 354.668C542.302 353.799 541.683 353.125 537.469 345.686C532.718 337.299 531.78 335.53 530.136 331.861C529.338 330.081 528.513 328.786 528.304 328.984C527.543 329.704 530.976 338.588 535.063 346.475C537.362 350.913 539.436 355.454 539.671 356.566C540.061 358.408 539.875 358.677 537.584 359.582C534.057 360.974 528.528 360.887 527.156 359.417C525.713 357.871 525.384 356.188 523.844 342.431C523.12 335.968 522.346 330.508 522.123 330.297C521.806 329.998 521.365 338.967 521.606 340.808C522.247 345.691 522.389 359.322 521.814 360.714C520.507 363.88 512.115 366.63 509.112 364.876C507.935 364.189 508.565 360.426 510.774 354.95C513.058 349.288 514.708 343.458 515.165 339.439C515.354 337.779 515.662 335.984 515.849 335.449C516.036 334.914 515.979 334.676 515.721 334.92C515.463 335.163 513.759 339.654 511.934 344.899C506.939 359.257 502.525 366.161 497.559 367.384C496.788 367.574 494.481 367.349 492.43 366.883L492.43 366.883ZM560.012 312.624C562.637 312.092 566.202 311.219 567.935 310.682L571.087 309.707L567.235 310.161C562.218 310.751 543.464 310.745 538.524 310.148C534.673 309.685 534.673 309.685 536.773 310.762C541.974 313.428 552.055 314.234 560.012 312.622V312.624ZM686.595 366.242C683.837 362.264 684.21 356.936 688.423 340.172C693.236 321.021 698.346 285.137 696.261 285.137C695.868 285.137 695.322 286.849 695.047 288.942C694.259 294.966 689.335 319.12 687.051 328.173C684.668 337.616 681.089 348.3 679.577 350.484C677.994 352.769 676.808 352.305 673.649 348.168L670.744 344.363L671.097 339.4C671.376 335.478 672.785 330.652 677.815 316.399C684.942 296.207 688.913 283.391 689.5 278.692C689.761 276.611 688.345 279.857 685.33 288.256C678.113 308.361 672.387 322.855 669.962 327.158C667.264 331.944 665.495 332.532 662.328 329.695C660.307 327.884 660.25 327.672 660.674 323.518C661.057 319.776 662.077 317.414 668.52 305.357C676.606 290.224 680.402 282.35 683.535 274.218C686.241 267.191 686.097 266.416 683.226 272.564C678.106 283.53 665.659 305.815 663.18 308.454C660.647 311.152 660.478 311.223 658.69 310.318C657.668 309.802 656.638 308.65 656.402 307.759C655.818 305.561 657.826 299.737 661.234 293.739C669.641 278.947 672.358 274.276 676.054 268.262C681.234 259.834 681.517 259.554 686.212 258.216C688.368 257.602 690.467 256.727 690.876 256.272C691.286 255.817 692.974 254.057 694.628 252.361L697.636 249.277L700.712 250.387C702.404 250.998 704.113 251.396 704.508 251.271C704.904 251.147 704.236 249.566 703.023 247.76C700.7 244.297 700.548 243.496 701.364 238.98C701.664 237.318 701.601 236.167 701.21 236.167C700.341 236.167 697.577 239.038 694.668 242.961C693.295 244.813 692.134 245.816 691.857 245.392C691.568 244.951 690.457 245.68 689.007 247.261C686.48 250.019 684.119 251.633 681.554 252.356C680.305 252.708 679.978 252.538 679.978 251.535C679.978 249.087 677.879 248.256 670.863 247.929C664.47 247.63 663.96 247.49 658.367 244.492C655.16 242.772 652.397 241.497 652.226 241.659C652.055 241.82 653.705 243.703 655.892 245.843C660.127 249.986 662.431 253.86 662.456 256.88C662.479 259.635 660.601 262.637 658.855 262.637C657.488 262.637 657.407 262.381 657.793 259.297C658.123 256.667 657.987 255.875 657.151 255.573C656.568 255.361 654.572 253.067 652.716 250.475C650.86 247.883 648.117 244.465 646.62 242.878L643.899 239.993L640.214 241.027C638.188 241.596 634.635 242.263 632.32 242.511C627.717 243.003 624.657 244.727 624.657 246.827C624.657 247.92 624.436 248.014 623.257 247.417C621.66 246.61 621.391 243.811 622.659 241.183C623.504 239.429 628.191 237.541 632.551 237.196C633.794 237.098 635.441 236.971 636.212 236.913C637.381 236.827 637.439 236.703 636.562 236.167C633.642 234.385 622.505 236.398 619.93 239.175C618.019 241.236 617.748 247.036 619.421 250.093C620.007 251.164 620.806 252.861 621.197 253.865L621.907 255.689L620.091 253.704C616.543 249.823 615.356 246.396 615.9 241.598C616.528 236.056 617.319 234.488 620.401 232.677C622.547 231.416 623.861 231.209 629.559 231.238C635.098 231.267 637.091 231.585 641.464 233.142C648.776 235.746 658.091 238.075 661.421 238.133C664.197 238.182 667.662 239.5 672.153 242.218C674.218 243.467 674.792 243.539 677.223 242.85C679.327 242.255 680.064 241.656 680.392 240.279C680.627 239.291 681.1 237.419 681.444 236.117C681.787 234.815 682.727 230.051 683.533 225.529C684.339 221.007 685.602 215.229 686.34 212.689C687.078 210.148 687.68 207.022 687.679 205.741V203.411L686.233 205.652C684.151 208.878 682.069 214.083 681.119 218.43L680.295 222.199L674.937 215.783C671.991 212.254 666.191 205.793 662.05 201.426C649.361 188.045 646.496 183.629 639.665 166.927C634.508 154.318 631.247 149.245 623.747 142.165C618.381 137.1 614.006 134.834 605.366 132.646C601.92 131.774 597.209 130.378 594.898 129.546C590.826 128.078 590.761 128.018 592.798 127.584C598.371 126.395 613.566 127.472 623.042 129.727C624.732 130.129 626.296 130.286 626.519 130.076C627.09 129.536 617.614 119.7 616.522 119.7C616.028 119.7 617.184 121.175 619.091 122.977C623.03 126.7 623.398 127.734 620.633 127.318C619.574 127.158 616.619 126.716 614.066 126.336C606.478 125.206 595.303 125.381 591.858 126.684C590.225 127.302 588.7 127.629 588.469 127.411C587.531 126.525 592.143 122.103 595.524 120.647C601.003 118.289 611.243 117.289 615.402 118.706C616.5 119.081 624.597 117.501 628.775 116.097C633.116 114.639 643.428 114.75 649.947 116.325C652.809 117.017 661.516 120.295 669.296 123.61C685.576 130.545 690.599 131.898 698.188 131.39C705.596 130.893 718.675 126.66 730.48 120.939C739.358 116.635 741.036 115.516 749.148 108.487C760.243 98.8738 767.445 94.2729 776.998 90.6959C781.869 88.8717 795.966 82.5983 804.279 78.5554C829.533 66.2722 853.629 43.5416 873.254 13.4898C880.367 2.59741 881.422 1.24754 882.818 1.24754C884.245 1.24754 883.978 5.31858 882.082 12.4972C879.734 21.3833 876.756 28.287 871.638 36.7117C866.126 45.7836 861.243 51.992 853.03 60.3679C845.918 67.6208 844.832 69.7857 849.552 67.299C852.517 65.7367 861.085 59.0867 867.203 53.5987C875.637 46.0341 892.429 26.9555 899.885 16.4677C909.11 3.49265 914.42 -2.16771 914.631 0.75114C915.121 7.54548 912.411 18.717 908.35 26.6398C902.979 37.119 891.275 50.926 877.649 62.8574C865.935 73.1144 854.457 80.7812 830.539 94.3248C824.572 97.7035 824.335 97.9301 828.105 96.6506C837.933 93.3147 865.791 77.2116 881.659 65.6945C894.104 56.6611 912.959 39.4309 925.61 25.5298C926.867 24.1485 928.156 23.1704 928.474 23.3562C929.083 23.7118 928.435 29.3257 927.162 34.7576C926.098 39.2906 921.551 47.9081 917.585 52.9067C913.462 58.1039 899.162 71.7141 892.51 76.7725C882.404 84.4573 872.256 90.1484 855.399 97.5837C838.966 104.832 829.06 107.813 813.032 110.334L809.181 110.94L813.382 111.016C820.14 111.136 830.79 109.317 839.551 106.546C854.412 101.845 876.57 91.7665 894.862 81.3879C909.128 73.2926 911.236 71.8461 923.324 61.8559C927.946 58.0365 931.835 55.2006 931.965 55.5541C932.402 56.7356 928.619 68.0433 926.387 72.2254C921.537 81.3165 914.103 89.2115 904.708 95.25C899.023 98.9045 881.352 107.384 876.056 109C866.497 111.915 860.105 113.625 854.698 114.713C843.946 116.875 828.833 120.956 829.442 121.532C829.638 121.717 831.147 121.532 832.795 121.123C838.231 119.769 844.917 118.461 853.366 117.099C863.391 115.482 882.236 111.13 889.011 108.866C899.075 105.503 915.061 99.2011 917.861 97.4934C920.43 95.9257 920.301 97.4696 917.405 102.923C907.613 121.358 878.194 131.079 840.343 128.386C834.758 127.989 829.401 127.481 828.438 127.258C826.709 126.856 826.712 126.867 828.649 128.142C830.126 129.115 832.977 129.661 840.203 130.357C855.183 131.8 869.171 131.502 886.061 129.378C894.067 128.371 900.915 127.643 901.28 127.76C902.705 128.217 895.379 135.667 890.427 138.797C882.59 143.75 876.809 145.161 861.576 145.836C855.018 146.127 850.813 145.907 843.369 144.882C838.046 144.149 828.963 142.965 823.186 142.25C811.2 140.767 804.576 139.53 796.576 137.279C793.495 136.411 789.871 135.495 788.523 135.242C784.668 134.518 786.851 135.98 791.324 137.118C793.442 137.656 798.322 139.03 802.167 140.171C806.012 141.312 812.315 142.686 816.172 143.223C820.03 143.761 828.543 145.221 835.091 146.468C847.401 148.813 855.999 149.781 871.33 150.549C877.847 150.875 880.258 151.224 880.258 151.84C880.258 153.391 871.563 160.087 866.371 162.534C861.732 164.721 860.688 164.955 855.517 164.964C852.371 164.977 847.275 164.429 844.194 163.764C834.529 161.675 809.816 152.852 797.626 147.139C789.814 143.477 780.377 140.024 779.198 140.395C778.807 140.518 782.242 142.202 786.831 144.137C796.037 148.019 795.666 147.852 808.33 153.864C817.613 158.272 835.569 165.316 841.016 166.687C842.735 167.119 846.773 168.373 849.989 169.473L855.838 171.473L854.332 172.988C852.085 175.248 845.164 178.519 841.083 179.251C836.049 180.153 831.677 179.153 822.486 174.996C814.791 171.515 804.41 165.319 789.223 155.141C780.746 149.459 773.868 145.509 772.453 145.509C771.403 145.509 774.537 148.026 778.733 150.552C782.1 152.579 786.396 155.497 799.999 165C810.032 172.009 821.848 179.217 829.338 182.898C832.3 184.354 834.626 185.842 834.506 186.206C834.387 186.57 832.005 187.985 829.214 189.35C822.954 192.411 817.918 192.718 812.97 190.342C807.402 187.668 797.582 179.844 781.411 165.196C772.671 157.28 765.35 150.803 765.141 150.803C764.932 150.803 765.673 152.068 766.787 153.615C768.749 156.338 782.766 169.605 802.807 187.707C814.62 198.377 814.752 197.219 801.128 202.445C795.708 204.523 789.504 204.9 786.01 203.363C782.469 201.804 772.673 192.413 766.319 184.487C763.576 181.065 759.539 175.139 757.347 171.317C753.218 164.117 748.582 156.759 748.175 156.759C747.036 156.759 758.92 178.473 762.843 183.559C764.808 186.107 769.972 192.396 774.318 197.534C778.664 202.673 782.22 207.206 782.22 207.607C782.22 208.582 774.852 210.618 771.506 210.568C769.722 210.541 768.27 210.018 767.102 208.981C764.505 206.675 759.389 198.778 752.563 186.537C749.214 180.532 745.838 174.874 745.06 173.964L743.646 172.31L744.64 174.626C747.472 181.222 756.295 197.409 759.429 201.757C765.868 210.692 766.165 213.007 760.869 213.007C754.861 213.007 750.339 207.399 743.527 191.5C741.811 187.497 740.004 182.798 739.509 181.059C739.015 179.32 738.469 178.03 738.296 178.194C737.107 179.317 742.822 195.223 748.181 205.709C752.108 213.392 751.828 213.832 744.199 211.964C738.986 210.687 735.42 209.013 732.171 206.317C730.812 205.19 729.7 204.434 729.7 204.637C729.7 204.84 731.302 211.199 733.26 218.767C737.211 234.044 741.245 246.358 744.921 254.366C750.561 266.653 752.524 270.774 757.373 280.505C762.78 291.355 766.815 301.654 766.815 304.605C766.815 308.029 765.121 309.995 760.364 312.096C759.356 312.541 756.217 307.015 752.178 297.686C749.899 292.422 746.575 284.84 744.79 280.836C743.006 276.833 739.476 268.346 736.947 261.976C734.418 255.607 732.044 249.949 731.672 249.403C731.153 248.642 731.1 248.72 731.445 249.734C731.693 250.462 733.293 255.382 735.001 260.667C736.708 265.951 739.726 274.438 741.706 279.526C743.686 284.614 746.978 293.433 749.022 299.124C756.609 320.246 757.231 325.604 752.607 329.974C750.298 332.156 749.919 332.296 748.252 331.578C745.274 330.296 743.445 325.19 738.133 303.336C732.615 280.636 729.878 270.535 729.013 269.687C728.699 269.378 728.864 271.027 729.379 273.351C729.895 275.674 730.975 281.287 731.78 285.823C732.584 290.36 734.336 299.282 735.671 305.652C740.306 327.753 741.344 338.708 739.178 342.665C737.911 344.982 735.335 345.664 732.332 344.478C728.269 342.873 728.018 342.143 726.607 327.82C724.709 308.561 722.466 289.64 721.643 285.961L720.646 281.498L720.987 289.108C721.175 293.293 721.629 302.078 721.996 308.629C723.974 343.982 723.777 347.697 719.652 352.772C716.781 356.304 711.358 359.223 709.595 358.186C708.16 357.343 707.958 351.839 708.845 337.746C710.404 312.948 710.275 282.436 708.645 290.762C708.36 292.218 707.622 300.258 707.004 308.629C706.386 317.001 705.422 327.274 704.861 331.46C704.3 335.645 703.648 340.559 703.412 342.379C702.365 350.446 699.749 358.392 697.032 361.759C695.36 363.83 689.571 367.856 688.263 367.856C687.963 367.856 687.213 367.13 686.598 366.243L686.595 366.242ZM680.713 270.247C682.57 266.805 683.036 265.532 682.044 266.608C681.206 267.518 679.279 270.645 677.762 273.556C676.198 276.559 675.622 278.134 676.431 277.196C677.215 276.286 679.142 273.159 680.713 270.247ZM708.79 235.273C710.119 234.054 711.585 231.86 712.049 230.399C713.162 226.887 713.068 220.45 711.866 217.97C710.955 216.09 710.901 216.274 710.847 221.457C710.787 227.137 708.749 233.546 706.131 236.28C704.096 238.404 706.279 237.578 708.79 235.273ZM726.951 213.123C723.719 206.267 720.077 200.366 718.517 199.455C718.155 199.243 719.105 201.084 720.627 203.546C722.15 206.008 723.395 208.264 723.395 208.56C723.395 209.636 729.969 221.833 730.198 221.182C730.329 220.813 728.867 217.186 726.951 213.123ZM779.958 180.415C775.192 175.593 768.853 168.744 765.87 165.195C762.888 161.647 760.296 158.743 760.11 158.743C758.835 158.743 766.248 168.634 772.705 175.547C776.411 179.515 787.485 189.183 788.324 189.183C788.488 189.183 784.723 185.238 779.958 180.415ZM656.918 178.748C654.826 177.029 651.915 173.835 650.447 171.65C647.264 166.91 646.892 167.935 649.881 173.209C651.485 176.04 652.966 177.539 656.009 179.415C658.215 180.776 660.178 181.886 660.371 181.881C660.564 181.868 659.01 180.466 656.918 178.748ZM707.997 172.143C703.109 163.959 693.216 155.203 683.757 150.691C680.48 149.128 678.124 147.747 678.519 147.622C679.56 147.294 690.279 150.007 692.786 151.232C695.818 152.714 702.552 154.838 702.969 154.443C703.162 154.261 703.025 154.111 702.663 154.111C702.301 154.111 700.279 153.029 698.169 151.708C689.561 146.314 685.409 144.817 676.255 143.807C671.563 143.289 665.761 142.456 663.361 141.955C660.962 141.455 659.144 141.268 659.321 141.538C659.498 141.81 662.407 143.15 665.785 144.518C673.813 147.769 684.539 153.29 689.986 156.975C694.553 160.065 704.143 168.928 706.786 172.503C708.941 175.416 709.799 175.161 707.997 172.143ZM672.905 157.957C671.167 154.887 665.445 149.901 660.079 146.781C656.998 144.989 654.202 143.523 653.866 143.523C653.529 143.523 656.667 146.033 660.839 149.102C665.011 152.17 669.51 155.744 670.837 157.043C673.634 159.78 674.039 159.96 672.905 157.957ZM805.677 132.962C791.947 127.619 792.157 127.687 795.972 129.827C799.094 131.578 804.322 133.488 806.027 133.5C806.67 133.512 806.534 133.296 805.677 132.962ZM636.737 126.058C638.406 124.861 638.276 123.292 636.406 122.054C634.261 120.634 631.856 120.764 630.96 122.347C629.204 125.448 633.627 128.289 636.737 126.058ZM824.719 125.919C823.637 125.365 822.062 125.039 821.217 125.194C819.95 125.426 820.018 125.491 821.608 125.566C822.667 125.615 823.533 125.954 823.533 126.318C823.533 126.682 824.242 126.968 825.109 126.953C826.58 126.928 826.555 126.86 824.719 125.919ZM818.462 123.39C818.863 123.011 800.711 121.535 799.324 121.833C798.581 121.993 799.864 122.343 802.175 122.611C804.486 122.879 808.11 123.335 810.228 123.624C813.652 124.092 817.845 123.972 818.462 123.39ZM762.755 107.708C764.763 106.589 771.099 103.766 776.835 101.434C782.571 99.1025 789.832 95.6013 792.969 93.6538C800.601 88.9165 809.404 82.445 810.802 80.5442L811.936 79.0027L810.207 80.1481C803.445 84.6264 787.818 93.1334 778.713 97.2928C767.352 102.483 759.239 107.135 756.297 110.146L754.557 111.927L756.83 110.835C758.081 110.234 760.747 108.827 762.755 107.708ZM845.242 69.0299C845.242 68.848 844.611 69.0173 843.841 69.4074C843.071 69.7969 842.441 70.2646 842.441 70.4468C842.441 70.6287 843.071 70.4593 843.841 70.0691C844.611 69.6796 845.242 69.2118 845.242 69.0299ZM365.295 347.258C365.055 346.121 364.858 344.068 364.858 342.697V340.202L367.659 340.874C371.061 341.691 371.319 343.192 368.684 346.857C366.52 349.866 365.864 349.943 365.295 347.258ZM586.843 299.953C584.598 298.431 584.008 298.331 579.84 298.764C573.62 299.41 538.394 299.144 533.579 298.414C528.567 297.654 519.617 295.089 519.617 294.412C519.617 292.598 529.798 290.378 548.652 288.084C553.506 287.493 557.076 286.009 558.133 284.142C558.729 283.089 558.901 281.186 558.643 278.497C557.525 266.841 542.968 258.005 524.882 258.005C522.355 258.005 520.878 257.503 518.014 255.672C510.862 251.1 499.89 249.307 487.31 250.654C483.599 251.051 475.123 252.707 468.474 254.333C461.825 255.96 453.832 257.473 450.712 257.696L445.038 258.101L439.786 255.128C433.665 251.663 423.995 243.636 418.519 237.475C416.409 235.1 412.29 229.774 409.367 225.639L404.051 218.121L405.912 215.067C410.825 207.008 421.449 194.749 434.865 181.66C446.918 169.902 466.771 154.841 470.293 154.785C470.703 154.772 471.559 155.803 472.194 157.062C473.582 159.812 479.661 163.36 483.001 163.369C485.046 163.382 485.321 163.626 486.038 166.141C487.408 170.95 493.472 174.949 501.88 176.588C505.475 177.289 506.272 177.694 506.617 178.994C507.523 182.405 511.068 185.112 516.915 186.857C519.982 187.773 522.868 188.523 523.33 188.523C523.791 188.523 524.799 189.641 525.569 191.005C527.839 195.024 537.064 198.309 544.259 197.661C546.73 197.438 546.977 197.577 547.676 199.578C548.09 200.764 549.28 202.307 550.319 203.007C553.128 204.897 559.992 206.594 563.189 206.189C565.702 205.87 566.16 206.064 568.373 208.378C571.305 211.446 575.712 213.006 581.439 213.006C584.828 213.006 585.966 213.306 587.639 214.635C590.241 216.705 593.776 217.63 599.097 217.635C601.594 217.635 604.794 218.176 606.983 218.962C610.889 220.365 616.569 220.677 620.217 219.688C621.538 219.33 624.201 219.337 626.865 219.706C635.773 220.937 639.017 221.034 642.164 220.164C643.897 219.685 647.165 219.384 649.425 219.494L653.535 219.695L653.1 222.268C652.447 226.126 651.364 228.41 650.382 228.001C641.601 224.341 640.293 224.027 632.621 223.733C626.552 223.5 624.048 223.679 621.298 224.543C616.782 225.96 611.803 230.104 609.415 234.432C603.018 246.028 612.712 261.976 626.158 261.976C629.645 261.976 630.557 260.405 630.062 255.249C629.742 251.915 629.855 251.388 630.886 251.388C631.543 251.388 632.379 251.147 632.745 250.852C633.111 250.557 634.275 249.969 635.333 249.544L637.255 248.773L637.171 252.267C637.078 256.095 638.224 258.771 641.013 261.233C644.295 264.13 645.702 262.126 644.323 256.517C643.988 255.152 643.954 254.035 644.246 254.035C645.386 254.035 649.868 261.665 649.868 263.606C649.868 265.034 642.912 274.49 640.984 275.684C639.498 276.604 639.152 276.623 638.614 275.82C638.268 275.303 637.98 274.127 637.974 273.207C637.959 271 636.12 268.594 634.446 268.594C632.678 268.594 628.997 271.712 624.592 276.943C622.621 279.284 619.545 282.141 617.756 283.291C615.968 284.441 612.722 286.891 610.544 288.734C607.339 291.447 590.565 301.771 589.56 301.648C589.414 301.631 588.191 300.868 586.844 299.954L586.843 299.953ZM657.168 284.256C656.908 283.615 656.921 281.689 657.197 279.977C657.919 275.511 657.936 273.848 657.286 271.306C656.779 269.317 656.855 269.108 657.948 269.504C659.713 270.144 666.28 268.188 668.545 266.346C669.602 265.487 670.952 263.334 671.546 261.56C672.386 259.053 672.99 258.287 674.267 258.116C675.698 257.925 675.842 258.094 675.392 259.44C675.109 260.289 673.649 262.304 672.149 263.918C670.648 265.532 667.653 269.701 665.492 273.182C658.375 284.651 657.696 285.555 657.168 284.256ZM546.89 278.19C542.901 275.525 536.511 274.34 525.777 274.276L516.182 274.219L518.425 272.586C519.658 271.688 521.677 269.933 522.912 268.685L525.156 266.415L530.7 266.774C539.773 267.362 546.583 270.928 548.717 276.207C549.384 277.859 549.789 279.345 549.617 279.508C549.444 279.671 548.217 279.078 546.89 278.191V278.19ZM667.749 237.088C665.451 236.563 662.821 235.669 661.904 235.101C660.294 234.104 660.254 233.881 660.752 228.666C661.036 225.694 661.244 219.69 661.215 215.322L661.163 207.381L665.001 211.25C671.879 218.183 677.879 226.221 677.872 228.493C677.858 232.116 673.746 238.894 672.044 238.098C671.979 238.067 670.046 237.613 667.749 237.088ZM628.807 211.496C624.521 209.39 619.029 201.536 612.635 188.373C609.855 182.651 607.48 178.063 607.357 178.18C606.603 178.893 611.478 191.657 615.651 199.896C618.359 205.243 620.462 210.156 620.325 210.815C620.11 211.842 619.337 212.014 614.952 212.014C610.254 212.014 609.694 211.865 608.203 210.227C605.665 207.438 603.782 201.84 601.161 189.289C597.886 173.61 597.086 173.059 599.087 187.86C599.653 192.046 600.436 197.257 600.828 199.441C601.22 201.624 601.542 204.988 601.544 206.915L601.557 210.419L598.932 209.975C595.539 209.4 591.787 207.946 590.204 206.592C588.547 205.175 588.576 200.748 590.341 185.911C591.096 179.562 591.566 174.227 591.384 174.055C590.631 173.344 590.179 174.866 589.221 181.348C587.895 190.312 585.628 200.738 584.402 203.511C583.785 204.906 582.936 205.727 582.11 205.727C580.13 205.727 574.436 203.762 573.575 202.782C572.585 201.654 575.857 192.296 580.875 181.904C582.897 177.719 584.773 173.55 585.045 172.64L585.539 170.986L584.124 172.64C583.345 173.55 580.154 178.984 577.033 184.715C570.687 196.365 568.707 198.448 563.977 198.448C562.445 198.448 559.712 197.972 557.905 197.39L554.618 196.332L560.231 190.728C565.315 185.653 566.651 183.889 565.411 183.889C565.173 183.889 563.85 184.826 562.47 185.97C558.153 189.553 554.306 190.832 547.987 190.787C542.589 190.749 533.631 188.913 533.631 187.845C533.631 187.569 536.231 186.685 539.408 185.881C550.26 183.134 571.095 175.038 574.684 172.173C576.608 170.638 578.761 167.421 578.212 166.902C577.977 166.68 576.47 167.621 574.863 168.993C571.724 171.674 559.225 177.62 551.894 179.921C545.341 181.978 536.237 182.842 529.269 182.067C523.454 181.42 514.797 178.716 515.434 177.745C515.621 177.46 518.453 177.112 521.727 176.972C529.267 176.65 539.939 174.558 551.138 171.207C560.058 168.537 568.645 164.976 568.645 163.946C568.645 162.949 566.815 163.326 563.656 164.975C559.678 167.051 548.438 170.31 538.808 172.179C532.523 173.399 529.947 173.584 524.178 173.231C516.575 172.766 502.833 169.934 498.128 167.864C494.995 166.485 492.046 163.954 494.766 164.978C496.505 165.633 517.77 166.6 523.477 166.284C537.263 165.521 554.639 162.218 554.639 160.361C554.639 160.121 554.149 160.103 553.549 160.321C552.949 160.538 549.089 161.387 544.971 162.207C534.951 164.203 510.91 164.35 503.352 162.462C493.981 160.122 478.11 153.351 471.833 149.016C470.003 147.753 468.506 146.663 468.506 146.595C468.506 146.525 472.524 147.713 477.435 149.233C482.345 150.752 489.357 152.601 493.016 153.341C506.097 155.986 526.672 156.874 535.732 155.187C540.07 154.379 539.657 154.34 526.979 154.366C512.568 154.396 502.166 153.408 495.498 151.378C493.17 150.669 488.587 149.34 485.313 148.425C477.211 146.16 457.697 135.443 455.902 132.274C455.306 131.222 456.421 131.528 461.848 133.909C465.523 135.52 472.226 137.931 476.746 139.265C489.101 142.914 513.598 148.13 519.976 148.471C526.032 148.795 525.255 148.52 514.724 146.616C511.835 146.093 504.587 144.47 498.617 143.009C477.934 137.946 468.261 134.164 461.279 128.409C455.457 123.611 448.16 116.826 447.379 115.484C446.44 113.871 447.03 114.21 454.151 119.371C457.232 121.605 461.329 124.573 463.254 125.968C467.377 128.955 475.535 132.751 479.01 133.3C480.986 133.612 480.677 133.37 477.418 132.055C468.431 128.428 451 113.542 451 109.496C451 109.121 453.284 110.916 456.077 113.485C463.76 120.554 468.171 123.765 475.859 127.883C479.711 129.946 483.64 132.15 484.591 132.781C485.541 133.412 484.006 131.397 481.178 128.303C472.772 119.107 466.641 109.742 473.215 116.142C477.111 119.934 482.216 123.792 491.965 130.312C501.134 136.444 505.161 138.589 511.331 140.626C516.397 142.298 531.813 146.165 533.429 146.168C533.896 146.168 532.95 144.974 531.328 143.512C528.509 140.972 528.471 140.886 530.457 141.565C531.6 141.956 532.86 142.527 533.258 142.834C534.565 143.841 542.944 146.832 544.431 146.822C545.231 146.809 547.094 146.414 548.571 145.928C550.436 145.315 552.149 145.218 554.174 145.611C559.327 146.612 580.676 148.895 587.902 149.217C593.107 149.45 597.781 149.122 606.109 147.942C612.271 147.069 617.845 146.536 618.494 146.759C619.697 147.17 626.499 156.326 628.819 160.657C629.523 161.97 631.583 166.618 633.396 170.986C638.778 183.948 642.531 190.362 648.971 197.597C651.435 200.366 652.171 201.804 652.697 204.876C653.057 206.982 653.531 209.482 653.749 210.431C654.143 212.146 654.123 212.155 650.435 211.871C648.394 211.715 645.846 211.269 644.771 210.882C641.246 209.61 623.811 188.669 621.484 182.911C620.348 180.101 619.026 178.903 619.095 180.746C619.259 185.168 629.265 198.834 638.93 207.836C643.475 212.07 643.493 212.035 636.519 212.628C632.578 212.963 631.469 212.8 628.816 211.496L628.807 211.496ZM582.437 153.544C582.961 153.267 579.204 152.697 574.087 152.279C565.834 151.603 560.683 150.827 551.654 148.9C545.63 147.614 551.174 150.002 559.078 152.098C567.824 154.417 579.427 155.136 582.437 153.544ZM528.02 147.754C528.02 147.61 527.547 147.493 526.97 147.493C526.392 147.493 525.919 147.782 525.919 148.135C525.919 148.487 526.392 148.604 526.97 148.395C527.547 148.185 528.02 147.896 528.02 147.754ZM440.502 164.318C445.59 159.454 457.809 149.978 459.801 149.35C460.155 149.24 460.452 149.446 460.461 149.81C460.474 150.174 457.161 152.753 453.108 155.541C449.055 158.33 443.541 162.723 440.856 165.302C438.17 167.882 435.656 169.993 435.269 169.993C434.882 169.993 437.237 167.439 440.502 164.318ZM453.441 157.864C457.095 154.857 463.39 150.828 463.812 151.227C464.309 151.697 461.411 153.986 457.643 156.099C451.203 159.711 451.193 159.715 453.441 157.864ZM571.437 140.848C561.335 140.01 550.546 138.985 539.321 137.797C526.722 136.464 526.968 135.72 540.275 134.905C548.262 134.415 560.378 133.456 572.339 132.365C576.371 131.997 577.981 132.082 578.515 132.69C578.911 133.142 581.499 133.995 584.265 134.586C591.431 136.117 602.949 139.561 602.949 140.173C602.949 141.499 584.126 141.902 571.437 140.848ZM510.518 131.115C510.541 128.753 553.506 107.781 564.434 104.798C565.397 104.535 567.926 103.636 570.055 102.8C575.4 100.699 611.044 89.9272 622.557 86.9332C637.209 83.1226 644.81 81.4744 657.453 79.3669C663.872 78.2968 669.819 77.2759 670.669 77.0978C676.318 75.9135 697.162 75.2382 718.304 75.5549C743.989 75.9396 750.689 76.5487 768.696 80.1352L779.334 82.2541L776.703 83.7368C775.256 84.5522 773.305 85.3636 772.367 85.54C771.43 85.7161 769.669 86.0614 768.454 86.3067C767.081 86.5841 763.861 86.2237 759.942 85.3542C747.31 82.5517 729.906 81.2498 706.939 81.3889C676.583 81.5731 664.822 82.51 640.063 86.7163C633.708 87.796 626.618 88.9753 624.307 89.3369C619.612 90.0714 610.42 92.5699 610.865 92.9906C611.023 93.1402 613.955 92.8339 617.38 92.3101C620.805 91.7863 628.018 90.7104 633.41 89.9195C638.803 89.1285 644.947 88.2043 647.066 87.8658C656.992 86.2796 688.374 85.1688 713.942 85.4986C739.51 85.8284 746.821 86.3672 758.503 88.7828L762.449 89.5988L760.553 91.7455C758.898 93.6192 758.23 93.892 755.296 93.892C752.47 93.892 743.583 92.868 734.95 91.5474C732.746 91.2103 728.233 90.7571 722.345 90.2818C720.419 90.1264 717.268 89.8063 715.342 89.5704C706.821 88.5267 680.708 89.0947 658.389 90.8093C637.096 92.4451 627.439 93.7223 609.952 97.2161C591.478 100.907 590.001 101.321 563.034 110.371C558.604 111.858 546.152 117.245 535.361 122.343C520.648 129.293 515.087 131.612 513.127 131.612C511.69 131.612 510.516 131.388 510.518 131.115ZM541.01 129.662C542.192 128.549 554.748 123.895 563.384 121.369C568.005 120.017 576.632 117.438 582.554 115.639C593.23 112.394 597.12 111.803 590.713 114.399C588.881 115.141 585.277 117.083 582.704 118.714C580.131 120.345 577.095 121.79 575.957 121.924C574.819 122.058 571.209 122.938 567.935 123.879C562.753 125.368 541.89 130.288 540.755 130.288C540.53 130.288 540.645 130.006 541.01 129.662ZM507.278 127.067C509.761 124.475 522.814 117.418 535.145 112.001C542.203 108.901 550.026 105.448 552.53 104.328C559.964 101.003 564.467 99.4122 585.792 92.5797C606.239 86.0283 614.072 83.8458 636.562 78.4336C663.875 71.8603 668.428 71.3735 712.191 70.3477C734.383 69.8276 755.893 70.8272 770.005 73.0345C779.338 74.4942 789.555 76.7821 790.429 77.6083C790.605 77.7746 789.224 78.133 787.359 78.4047C784.962 78.7539 781.301 78.4622 774.865 77.4107C746.943 72.8471 740.884 72.4376 708.69 72.9393C694.246 73.1642 681.327 73.5041 679.978 73.6945C678.63 73.885 673.904 74.3463 669.474 74.7192C665.045 75.0922 660.476 75.6914 659.32 76.0508C658.165 76.4103 653.281 77.4325 648.466 78.3222C643.652 79.2121 637.822 80.5064 635.511 81.198C633.201 81.8897 629.577 82.8246 627.458 83.2756C625.34 83.7265 620.613 84.9495 616.954 85.9931C613.295 87.0367 607.15 88.7722 603.299 89.8497C595.842 91.936 567.129 101.237 559.532 104.026C550.644 107.291 535.38 114.209 518.059 122.825C512.004 125.838 506.834 128.303 506.572 128.303C506.309 128.303 506.628 127.747 507.278 127.067ZM502.749 126.426C503.968 124.274 508.959 120.455 513.189 118.436C515.454 117.356 518.221 115.751 519.337 114.869C520.454 113.988 523.258 112.373 525.569 111.28C527.88 110.188 530.716 108.818 531.872 108.237C536.935 105.689 544.624 102.296 548.585 100.862C550.947 100.007 556.188 98.0566 560.232 96.5283C567.122 93.9243 574.554 91.3897 594.896 84.7056C603.627 81.8366 623.051 76.4993 639.363 72.4866C655.426 68.535 680.957 65.0348 695.296 64.8184C699.333 64.7581 702.826 64.5972 703.057 64.4621C704.29 63.742 742.497 63.3844 747.554 64.0456C750.636 64.4484 754.574 64.9046 756.308 65.0591C774.808 66.7084 798.617 72.208 796.181 74.2689C796.012 74.4126 792.091 73.6797 787.47 72.6402C777.335 70.3609 763.151 68.423 748.955 67.3779C735.108 66.3586 690.134 67.0192 677.527 68.4271C665.355 69.7865 649.549 72.4492 641.814 74.4427C638.347 75.3362 632.491 76.7931 628.8 77.6804C614.968 81.0056 596.865 85.8892 593.145 87.2988C591.027 88.1014 583.936 90.4662 577.389 92.5537C563.779 96.893 542.001 105.116 532.222 109.608C522.637 114.011 508.652 122.27 505.888 125.159C503.35 127.813 501.553 128.538 502.749 126.426ZM695.384 121.626C689.354 120.892 680.386 119.162 678.41 118.351C677.307 117.898 678.728 117.825 683.102 118.11C692.04 118.692 703.276 120.567 703.617 121.533C703.942 122.455 702.348 122.472 695.384 121.626ZM721.294 111.716C718.199 110.997 699.466 107.833 695.734 107.4C694.194 107.221 682.377 106.904 669.474 106.696C644.059 106.286 631.792 106.914 623.607 109.042C618.687 110.321 601.027 111.325 602.152 110.262C602.823 109.628 612.328 107.769 628.159 105.175C637.403 103.66 644.025 103.028 655.119 102.602C670.367 102.017 691.235 102.123 698.536 102.822C708.223 103.749 731.419 107.823 733.469 108.958C733.81 109.147 732.865 110.002 731.368 110.858C728.537 112.477 725.634 112.724 721.294 111.716Z" fill="#2EADDC"/>
</svg>
